<svg id="Layer_3" data-name="Layer 3" xmlns="http://www.w3.org/2000/svg" viewBox="0 0 300 300"><defs><style>.cls-1{fill:#aee340;}</style></defs><path class="cls-1" d="M250.41,200.26a78,78,0,0,0-26.19-24.16c.38-.33.75-.66,1.1-1,7.1-7.37,8.15-15.9,5.5-22.33,14.51-2.2,26.72-8.87,27.78-17,2.66-20.54-12.05-43.12-33.4-45.85,7-21.47,18.7-31,24.23-35.34,3.43-2.67,6.34-10,5.06-15.07s-18.28,8.13-26.1,22.63a65.51,65.51,0,0,0-8,27.52,36,36,0,0,0-7,.79c-1.85-23,8-42.25,11.94-49.32,2.5-4.46.5-14.35-3.28-19.28S205.54,41,203.76,60.32c-1.23,13.33,1,24.33,4,31.72a53.73,53.73,0,0,0-14.29,8.13c-9.81,7.61-11.79,17.73-9.62,27C126.87,43.12,52.25,0,42.76,0,32.17,0-8.22,39.45,1.49,110.81c6.47,47.54,29.61,75.24,38,77.26S88.7,190.5,140.7,177.93C100,192.05,71.23,204,63.29,211.54s0,33.78,27,60.36c21.56,21.22,62.89,30.13,68.28,27.71,6.48-2.91,29.26-53.11,39.49-100.27a64.51,64.51,0,0,0,49.54,49.55C276.24,255.18,260.1,214.7,250.41,200.26Zm-36-91c4.91-7.27,15.68-8.83,24.07-3.47s11.22,15.59,6.31,22.87-15.68,8.82-24.07,3.47S209.47,116.54,214.38,109.27Z"/></svg>