<svg id="Layer_3" data-name="Layer 3" xmlns="http://www.w3.org/2000/svg" viewBox="0 0 300 300"><defs><style>.cls-1{fill:#ae3;}</style></defs><path class="cls-1" d="M238.39,191.34a64.31,64.31,0,0,0-21.54-19.87c.3-.27.61-.55.9-.85,5.84-6.06,6.7-13.07,4.53-18.37,11.93-1.81,22-7.29,22.84-14,2.19-16.9-9.91-35.48-27.47-37.72C223.38,82.87,233,75,237.58,71.46c2.82-2.2,5.22-8.23,4.16-12.4s-15,6.69-21.47,18.62a54,54,0,0,0-6.61,22.63,30.05,30.05,0,0,0-5.78.66c-1.52-19,6.56-34.76,9.82-40.58,2.06-3.66.42-11.8-2.69-15.86s-13.54,15.8-15,31.7c-1,11,.81,20,3.25,26.09A44.14,44.14,0,0,0,191.51,109c-8.08,6.26-9.7,14.59-7.92,22.2-46.83-69.14-108.21-104.6-116-104.6-8.71,0-41.93,32.45-33.94,91.15C39,156.87,58,179.66,64.92,181.32s40.44,2,83.22-8.34C114.66,184.59,91,194.43,84.46,200.62s0,27.79,22.24,49.66c17.74,17.45,51.74,24.79,56.17,22.79,5.33-2.39,24.07-43.69,32.49-82.49a53.06,53.06,0,0,0,40.75,40.77C259.63,236.53,246.36,203.22,238.39,191.34ZM208.75,116.5c4-6,12.9-7.27,19.8-2.86s9.23,12.83,5.19,18.81-12.9,7.26-19.8,2.86S204.71,122.48,208.75,116.5Z"/></svg>