<svg id="Layer_3" data-name="Layer 3" xmlns="http://www.w3.org/2000/svg" viewBox="0 0 300 300"><defs><style>.cls-1{fill:#94e;}</style></defs><path class="cls-1" d="M195.39,40.54c-3.91,1.94-3.61,2.79.65,1.87,10.37-2.23,18.56-1.17,23.46,3.73,8.08,8.08,5.73,25-4.58,46-1.1-1.23-2.23-2.44-3.41-3.62a87,87,0,0,0-123,0c-32.56,32.56-19,53.76-43.36,98.14l-.09.16c-19.34,35.13-24.54,65-10.68,78.85,12.71,12.72,38.89,9.39,70.25-6.18,3.91-1.94,3.61-2.79-.65-1.87-10.36,2.23-18.56,1.17-23.46-3.73-8.08-8.08-5.73-25.05,4.58-46,1.1,1.23,2.23,2.44,3.41,3.62a87,87,0,0,0,123,0c32.56-32.56,19-53.76,43.36-98.14l.09-.16c19.34-35.13,24.54-65,10.68-78.85C252.93,21.64,226.75,25,195.39,40.54Zm-6.85,148c-39.64-28.71-37.44-28.71-77.08,0,28.71-39.64,28.71-37.44,0-77.08,39.64,28.71,37.44,28.71,77.08,0C159.83,151.1,159.83,148.9,188.54,188.54Z"/></svg>