<svg id="Layer_3" data-name="Layer 3" xmlns="http://www.w3.org/2000/svg" viewBox="0 0 300 300"><defs><style>.cls-1{fill:#474f61;}</style></defs><path class="cls-1" d="M176.14,27.55c50,55.86,24.25,109.89-25.86,109.89h-.55c-50.09,0-75.88-54-25.86-109.89C63.9,44.73,23.55,135,32.16,177.71c6.57,32.62,47.19,67.48,82.51,82.56-9.37-28.44,23.94-29.79,35.33-29.79s44.7,1.34,35.33,29.79c35.33-15.08,76-49.94,82.52-82.56,8.6-42.75-31.75-133-91.72-150.16ZM99.93,204.42c-4.56-4-7.6-12.42-6.09-26.2h0a74.53,74.53,0,0,0,41.71,24c-13.49,3-29.75,7.33-35.64,2.17Zm100.16,0c-5.91,5.16-22.16.83-35.65-2.17a74.7,74.7,0,0,0,41.71-24h0c1.53,13.78-1.52,22.21-6.08,26.2Z"/></svg>