<svg id="Layer_3" data-name="Layer 3" xmlns="http://www.w3.org/2000/svg" viewBox="0 0 300 300"><defs><style>.cls-1{fill:#474f61;}</style></defs><path class="cls-1" d="M210.4,15.17c-2.77-1.17-4.17.22-3.11,3,30.22,80.15-15.63,119.42-23,117.44-35.72-9.64-62.53-7.39-91.89,7.46C76.25,151.3,44,100.58,65.63,32.59c1.38-4.36-.31-5.49-3.79-2.53C16.12,69.1-6.78,139.42,11.44,204c14.18,50.23,62.71,77.26,86.18,85.59,31,11,66.33,9,85.48,3.29,29.23-8.71,75.29-26.33,99-83.22C318.84,121.71,270.09,40.41,210.4,15.17ZM75.32,208.35c6.35,7.45,18.06,17.79,39.55,25.23,2.63.91,2.56,2.26-.13,3-30.55,8-41.58-.13-42.14-27.15C72.55,207,73.75,206.51,75.32,208.35Zm78.86,23c19-8,36.32-21.17,47.81-33.18,1.19-1.24,2.38-.85,2.64.86,3.66,24.93-4.17,40.67-50,35.29C151.48,233.94,151.26,232.56,154.18,231.34Z"/></svg>