<svg id="Layer_3" data-name="Layer 3" xmlns="http://www.w3.org/2000/svg" viewBox="0 0 300 300"><defs><style>.cls-1{fill:#14a;}</style></defs><path class="cls-1" d="M273.47,123.34C265.38,81,233.19,39.74,163.72,29.08c30.62,19.82,31.34,54.9,18.6,71.55-22.24-13-47.23-13.79-67.23-9.57,3.66-14,16.91-27.55,37-32.9-16-3.23-36.37-1.43-54.25,6.6,4.11-13.14,14-25.11,29.85-35.68-55.16,7.15-93.29,45.19-100,90.76,12.4,11.11,12.94,27.5,3.14,45.62,0,0,5.22,17.2,13.88,21.63,8.86-26.27,40.77-56.07,85.68-48,32.25,5.8,46.51,30.74,44.7,55.92-2.95,41.09-37.91,67.65-93.19,61.24,35,26.16,91.15,21.14,122.53-12.59,11.3-12.15,29.5-42.2,22.67-78.47,21.57,26,12.62,64.61,1.49,83C271.11,223.78,280.8,161.74,273.47,123.34ZM54.86,133.91c-2.35-16.5,4.85-34.75,14.77-42.52,1.63,8.77,4.78,13.51,9.2,16.7C68.55,115.12,59.13,125.75,54.86,133.91Z"/></svg>