<svg id="Layer_3" data-name="Layer 3" xmlns="http://www.w3.org/2000/svg" viewBox="0 0 300 300"><defs><style>.cls-1{fill:#fd1;}</style></defs><path class="cls-1" d="M184.27,129.25l12.37-1.31c8.11-1.2,75.73-4.28,85.36-4.92-7.73-4.41-65.75-35.67-71.82-39.32C196.71,76.07,182.3,67.52,169,59.55q-4.12-2.49-8.26-5l60.16-16.47L99.52,39l25.19,21c9.14,7.63,18.19,15.39,27.18,23.19l3.93,3.43c-10.75.08-21.34.13-31.29.27,4.48,13.41,9.68,29,15,45.14-11.47-12.5-22.61-24.63-32.16-35-5,8.64-10.15,17.88-15.43,27.24-.37-1.71-.73-3.42-1.08-5.11C88.44,107.41,86,95.74,83.8,84L77.67,51.83C67.48,69.91,28.94,138.18,18,157.57L61.6,113c.12,3.22.24,6.43.35,9.65h0c.53,15.47,1,32.22,1.14,47.71.26,7.07-.55,73-.44,81.88,5.23-8.12,40.73-65.76,45.71-72.26l7.15-10.19c7.62,7,14.5,13.26,14.5,13.26,20.22,18.53,64.76,59.38,86.08,78.93-6.76-28.12-20.87-86.9-27.26-113.56C188.82,148.36,186.65,139.27,184.27,129.25Zm-7.43,57.86,3.61,14.33-10.79-10.12c-16.46-15.23-36.09-33.06-57.11-50-4.17,5.76-8.41,11.72-12.6,17.75-1.54,2.16-3.33,4.75-4.91,7-3.58,5.18-7.23,10.46-10.38,14.45L76.4,191.09l6-11.94c2.25-4.51,5.48-10,8.6-15.4l.07-.12c1.56-2.67,3-5.2,4.29-7.43,5.5-9.53,10.25-18,14.53-25.89l.23-.32.94-.93,1,.89c15.78,15.14,32.86,29.37,47.94,41.92,1.51,1.25,3.11,2.47,4.53,3.55l1.23.94c-.07-.43-.13-.87-.19-1.3l0-.24c-.27-1.86-.55-3.79-.9-5.67-3.68-19.36-7.86-41.3-13.4-62.24l-.46-1.73,1.8,0c8.77.1,18.2,0,29.66-.15,2.64,0,5.72-.08,8.7-.14,6.26-.13,12.66-.27,17.67,0l13.27.56-13.1,2.15c-4.94.81-11.23,1.43-17.31,2h-.11c-3.18.31-6.16.6-8.77.91-7.82.79-14.91,1.58-21.66,2.4C165.46,139.58,171.52,165.36,176.84,187.11Z"/></svg>