<svg id="Layer_3" data-name="Layer 3" xmlns="http://www.w3.org/2000/svg" viewBox="0 0 300 300"><defs><style>.cls-1{fill:#f8b;}</style></defs><path class="cls-1" d="M234.14,186.05c6.19-19.06,48.24-49.6,42.12-68.45S218.16,98.78,202,87s-32.26-61.22-52.08-61.22S114,75.21,97.79,87,29.6,98.76,23.47,117.6,59.4,167,65.61,186.05s-9.87,68.48,6.15,80.12,58.08-18.91,78.11-18.91S212,277.83,228,266.17s0-61.07,6.15-80.12Zm-84.25,20.13c-20.82,0-70.69-59.39-40.23-86.86,4.26-3.84,8.39-5.26,12.33-5.26,12.66,0,31.93,9.37,37.88,22.41l.19.38c.17.4.32.81.47,1.21.06.19.15.38.21.57.19.57.36,1.15.49,1.72a4.17,4.17,0,0,1,.08.49c.09.42.17.86.24,1.29,0,.25,0,.51.06.76s.06.66.06,1v1.71c0,.43-.08.85-.12,1.28,0,.14-.05.31-.07.46l-.06.45a4.77,4.77,0,0,0-.13.51c0,.21-.08.44-.13.65h0c-1.48,5.47-5.72,10.07-12.74,11.6a18.42,18.42,0,0,1-12.57-2.44,27.21,27.21,0,0,1-9.22-9.48,2.52,2.52,0,0,0-.31-.44.59.59,0,0,0-.49-.21.67.67,0,0,0-.47.19.63.63,0,0,0-.19.46,33.58,33.58,0,0,0,.19,3.61,23,23,0,0,0,.68,3.56A24.05,24.05,0,0,0,136.83,170a24.7,24.7,0,0,0,32.9-6.44,24.86,24.86,0,0,0,4.81-17.42,24.17,24.17,0,0,0-5.38-12.89,1.43,1.43,0,0,0-.11-.15c-6-7.27-8.05-9.66-6-13.06a8,8,0,0,1,2.22-2.24c6-4.11,15.88-6.66,24.91,1.48,30.46,27.45-19.42,86.86-40.23,86.86Z"/></svg>