<svg id="Layer_3" data-name="Layer 3" xmlns="http://www.w3.org/2000/svg" viewBox="0 0 300 300"><defs><style>.cls-1{fill:#b12;}</style></defs><path class="cls-1" d="M192.75,46.94a119.73,119.73,0,0,0-85.1,59.65c-18.1,32.31-8.36,71.66,30.64,65.24,23.34-3.84,40.36-17.65,49-36.83-3.3,27.68-26.95,53.36-60.47,58.22C84.31,199.39,59.2,159.71,67,122.37c5.51-26.51,17.37-47.82,33.11-64.72-42,23.52-72.16,77.83-45.69,136-16-14.79-22-33.42-21.85-52.6C21.75,192.82,45.69,241.09,97,252c67.32,14.38,150.51-39.24,169.79-119.84.26-1.07.49-2.13.72-3.18s.38-1.83.55-2.72v0C279.52,66.1,239,39.16,192.75,46.94ZM80,225.25c37.63,19.76,83.76,5,102.27-16.41,4,4.18,13.37,6.34,20.1,5.38C160.49,249.22,103.44,250.78,80,225.25Z"/></svg>