<svg id="Layer_3" data-name="Layer 3" xmlns="http://www.w3.org/2000/svg" viewBox="0 0 300 300"><defs><style>.cls-1{fill:#ba2525;}</style></defs><path class="cls-1" d="M205.51,23.56c-59.7,6.83-92.79,45.24-100.7,76.37-10,39.42,5.39,75.16,33.41,69.77,13.34-2.57,30.56-9.56,42.38-27.69,8.2-12.6,11.61-11.07,7.2,3.3-9,29.2-40.42,55.53-76.66,57.06-52.35,2.2-69.8-41.47-59.5-86.54,6-26.34,19.51-51.8,37.77-73.45,3.89-4.61,3-5.65-2.12-2.42C38.57,70.9,2.78,137.16,29.84,204.33c1.37,3.39.52,3.93-2,1.27A77.89,77.89,0,0,1,8.61,169c-1.28-5.66-2.81-5.55-3.2.24C2,219.9,35.9,263.25,88.33,274.45c82.34,17.58,184.12-48,207.7-146.6.31-1.31.6-2.62.88-3.92.21-1,.41-2,.6-2.92,0-.16.06-.33.1-.49C311.61,47.17,262,17.09,205.51,23.56ZM74.42,245.38c-5.94-5.19-4.89-6.91,2.33-3.73,36.1,15.9,80.88,6.53,111.32-20.29a4.33,4.33,0,0,1,4.45-.57c4.67,2.42,12,4,18.54,4.3,2.45.11,2.84,1.45.89,2.93C162,266,101.7,269.21,74.42,245.38Z"/></svg>