<svg id="Layer_3" data-name="Layer 3" xmlns="http://www.w3.org/2000/svg" viewBox="0 0 300 300"><defs><style>.cls-1{fill:#f08218;}</style></defs><path class="cls-1" d="M201.87,215.14c13.71-2.79,56.15-17.6,57.35-47.93a96.88,96.88,0,0,0-6.66-32.13c-.94,9-4.62,20.62-19.83,27,12.23-14.68,10.51-46.53,0-57.95C207.2,77,172.2,64.62,172.7,11.48c-42.74,59.58,7,89.74,16,119.28,3.92,12.81,1.27,29.53-13.78,37.5C194.56,141.59,165,110.88,139.3,84c3.21,24.81-40.34,51.7-27.27,81.88-22.34-20.85-3.52-44.44,4.74-59.14,7.74-13.73,20-38.47-12.22-63.94,8.45,19.87-7,34.1-18.07,44.22a172.76,172.76,0,0,0-21,22.87C56.28,122,60,146.57,69.76,154.45c-11-1.46-18.35-12-18.85-21.13a110.45,110.45,0,0,0-10,31.35C38.45,197.42,83.66,214,96.85,218.05c-6.44,4.74-35.87,3.89-52.49-11.73-.12-.11-.26-.2-.38-.3,4.8,15,13.77,29.29,27.19,42s31.25,20.87,50.93,24.26c20.63,2.87,25.36-11.34,27.43-15.19,2.91,4.27,11.82,19.72,32.25,13.91,28.86-8.28,58.88-34.06,71.22-62.71a2.71,2.71,0,0,0-.51.26c-12.9,9.78-43.33,10.83-50.62,6.6Zm-45.26-4.84c3.17,7.28,8.48,19.35,23.69,26.1-18.29-.17-32.3-13.25-35.52-15.69-2.88,2.53-15.76,17.19-34.27,17.74,14.5-7.62,21.89-23.22,23-28.28-6.33-2-23.7-7.9-32-18.16,13.72,5.68,29,4.25,35.34,2.64,1.36-5.07-.07-16.77,8-34.34,1.31,16.87,6.6,30.11,9.61,34.34,11.92,1.38,23.71,1.36,33.73-1.84-7.78,8.47-23.48,15.42-31.51,17.51Z"/></svg>