<svg id="Layer_3" data-name="Layer 3" xmlns="http://www.w3.org/2000/svg" viewBox="0 0 300 300"><defs><style>.cls-1{fill:#7af0cd;}</style></defs><path class="cls-1" d="M176.12,154.25c-15.09.72-29.41-13-17.92-30.68,6.79-10.44,17.44-14.14,26.38-14.44s10.33,8.75,6.46,16.16c-4.76,9.11-23.11,14.08-21.41,2.08-8.95,16.15,16.44,19.57,34.18,2.47C221.25,113,225.26,90.31,242,48.8c-29,31.12-63,19.86-92,46.54,0-22.53-21-20.31-14.93-62.26C106.52,62.43,88.62,89.71,88.85,107.2s18.58,15.72,24.92,8.6c-13.14,3.49-14.56-5.63-11.61-11.42,2-3.83,8.21-9.41,14.44-8.67,6.51.78,9.64,9.27,7.65,18.9-1.29,6.3-9.34,20.76-27.92,20.76-23.63,0-28.69-37.48-22.27-70.51-28.25,31-39.83,49.06-52.56,80.05,21.15,18.33,50.23,39,34.83,122,54.5-48.59,115-67.33,180.23-74.75C252.65,172.31,269,122.8,278.5,90.68c-40.32,52.39-85.28,62.75-102.38,63.57ZM78.7,224.13C80.7,197,94,164.2,99.28,156.2c1.11,10.55,4,25.17,4,25.17,7.76-3,29.06-10.43,38.35-14.88-16.77,29.06-39,42.21-62.95,57.63Z"/></svg>