<svg id="Layer_3" data-name="Layer 3" xmlns="http://www.w3.org/2000/svg" viewBox="0 0 300 300"><defs><style>.cls-1{fill:#85e0d2;}</style></defs><path class="cls-1" d="M202.87,200.73c117.34-67.55,97.9-78.22,29.07-91.64-42.23-8.23-98.47-15.62-143.06-20.45-7.06-.77-7-1.82,0-2.29,31.91-2.15,70.91-1.72,96.73-1.39,38.71.51,82.87,7.56,104.89,10.59A1.14,1.14,0,0,0,291.76,94c-8.11-20.52-25.92-45.62-45.21-60.22a1.13,1.13,0,0,0-.63-.23c-25.37-1.44-52.62-3.8-70.21-6.92-21.77-3.86-55.73-14.76-12-23.8,3.89-.8,3.86-1.86-.09-2.27C127.81-3.18,82.88,12.51,62.87,28a1.15,1.15,0,0,0,.26,2c22,8.79,52.6,13.52,67,15.71C150.76,48.79,181.63,53.26,206,56c5.29.6,5.28,1.6,0,2.28-20.43,2.62-37.57,2.49-57,2.36C123,60.5,90,57,38.61,50.56a1.17,1.17,0,0,0-1,.35c-15,15.47-28,38.34-32.42,56.89a1.16,1.16,0,0,0,1,1.41c55,4.86,81.58,7.45,115.64,11.69,100.9,12.57,113.05,8.87-16.55,61a1.14,1.14,0,0,1-1.27-.28c-12.79-13.38-24.53-22.46-15.56-40.68.63-1.28.06-2-1.32-1.64C74,142.93,49.77,158.88,42.25,177a1.17,1.17,0,0,0,.25,1.26c52.9,54.83,11.76,49.57,7.66,85.89-.13,1.12.6,1.66,1.63,1.23,92.08-39,122.47-23.22,182.8-21.52a1.16,1.16,0,0,0,.52-.11c3.38-1.63,41.36-20.33,58.75-49.51,1.77-3,1.06-3.62-1.68-1.51-18.06,13.91-53.4,11.24-90.57,8.95C201.61,201.54,202.87,200.73,202.87,200.73Zm-84.74-3.51c72.81-35.66,132.93-53.6,104.54-68-3.62-1.84-3.31-2.82.69-2.16,60.56,9.92,38.19,24.94-57.06,73.05a1.21,1.21,0,0,1-.53.12c-15.72-.13-30.86.81-44.21,4.14a1.13,1.13,0,0,1-1.3-.62c-.82-1.69-1.7-3.31-2.62-4.86A1.16,1.16,0,0,1,118.13,197.22Z"/></svg>