<svg id="Layer_3" data-name="Layer 3" xmlns="http://www.w3.org/2000/svg" viewBox="0 0 300 300"><defs><style>.cls-1{fill:#638;}</style></defs><path class="cls-1" d="M47.47,211.89c7.91,5.84,10.41-4,9.53-16.51-1-14.16,5.26-40.08,9.57-26.71a.24.24,0,0,1,0,.08q.42,1.69.87,3.39v0h0c12,45.23,42.36,90.28,77.79,93.59,21,2,34.56-17.43,45.92-14.78,8.7,2,7.3,11,4,17.45-.9,1.78-.26,2.39,1.48,1.41,22-12.48,22.86-32.63,3.65-39-18-6-41.3,5.83-44.58-5.4s10.13-15.34,29.92-24.44c9.64-4.44,25.66-14.31,37.58-30.35h0c1-1.32,1.93-2.67,2.85-4.07l0-.06c22-29.23,10.57,42.18,25.05,39.63C268.9,203,279,163.71,271.44,142.89c-8.36-23-32.61-1-32.8-16.72.05-2.48,0-5-.21-7.63-3.69-49.33-34.61-93.22-98.67-88.48-42,3.11-78.08,33.92-78.1,97.44h0C58.44,149.68,26.75,119.25,26,151,25.65,168.41,35.06,202.7,47.47,211.89Zm65.79-114c-.85-1.75-.21-2.38,1.48-1.41,15.24,8.77,32.09,15.52,49.44,15.37,14.45-.09,28.86-4.46,38.61-16.23a64.06,64.06,0,0,0,4.66-6.74c.83-1.36,1.74-1.19,2,.39,2.43,18-11.81,33.75-27.87,38.44-21.79,6.83-46.59-1.51-61.18-19A54.94,54.94,0,0,1,113.26,97.87Z"/></svg>