<svg id="Layer_3" data-name="Layer 3" xmlns="http://www.w3.org/2000/svg" viewBox="0 0 300 300"><defs><style>.cls-1{fill:#36ba45;}</style></defs><path class="cls-1" d="M157.15,158.71l.19.09c35.23,21.1,51.78,61,129.7-7.28-88.72-49.7-102.89-18.42-129.71-.83l-.18.09c-2.15,1.44-3.83-.47-2.13-3.18,22.36-29.29,58.82-43.08-4.16-127.53L150,19l-.82,1.11c-62.67,84-26.88,98.11-4.49,127.1,2.19,2.94.43,5.13-1.82,3.61-26.91-17.57-41-49-129.86.73,78,68.34,94.51,28.27,129.86,7.19,2.63-1.5,4.32.75,3.12,3.26-.17.3-.27.5-.31.55s-.12.2-.17.3C129.12,193,104.08,196.5,102,226.12c-1.22,17.06,8.85,29.6,24.64,33.59-12-8.89-17.78-20.14-15.41-34.88,3.26-20.31,19.59-25,33.69-40.37,3.69,25.72,20,29.16,19.83,46.22-.21,20.3-28.67,27.1-42.7,3.75,4.12,30.73,52,28,53.77-2.66,1.19-20-15.06-28.49-17-44.78,12.14,10.08,24.26,21.25,28.11,37.52,3.08,13.07-.86,25-9.91,34.93,12.8-5.34,22.79-20.24,19.38-38.74-5-27.29-32.44-39.94-41.83-57.83a2.24,2.24,0,0,0-.2-.37c0-.08-.15-.27-.32-.57-1.19-2.51.51-4.75,3.14-3.25Zm21.26-9.32a206,206,0,0,1,20.33-6.2,80.77,80.77,0,0,1,48.17,3.89c1.67.69,3.33,1.4,5,2.2-1.83.11-3.63.11-5.4.1-1.51,0-3.78-.08-5.32-.07s-3.69-.1-5.24-.13c-5.14,0-10.35-.17-15.47,0-1.44,0-3.61.13-5.08.23-3.31.15-6.78.51-10.09.89-12.27,1.43-24.44,4.34-36.94,2.59,3.38-1.31,6.71-2.34,10.09-3.54Zm-83.58,1c-3.31-.39-6.78-.74-10.1-.89-1.46-.1-3.63-.22-5.08-.23-5.13-.2-10.32-.06-15.46,0-1.57,0-3.68.11-5.25.13s-3.82,0-5.31.07c-1.78,0-3.58,0-5.41-.1,1.62-.8,3.29-1.51,5-2.2a80.77,80.77,0,0,1,48.17-3.89,204.33,204.33,0,0,1,20.33,6.2c3.38,1.2,6.72,2.23,10.09,3.54-12.5,1.75-24.66-1.16-36.94-2.59ZM150,140c-6-19.78-6-49.29-1.29-69.41.36-1.54.77-3.08,1.29-4.62.52,1.54.93,3.08,1.3,4.62C156,90.72,156,120.24,150,140Z"/></svg>