<svg id="Layer_3" data-name="Layer 3" xmlns="http://www.w3.org/2000/svg" viewBox="0 0 300 300"><defs><style>.cls-1{fill:#ccac6c;}</style></defs><path class="cls-1" d="M201.54,244.47c2.69-7,6.47-17.08,10.94-29.95-14.45,4.29-31.59.93-45.26-4C130.87,197.26,96.79,171.77,73,141.42c29.52,25.3,80.08,58.64,119.32,60.93,12.84.73,24.57-3,29.22-15a1333.18,1333.18,0,0,0,38-146.81c-49,9.71-92.42,21.29-127.15,31.83a5.46,5.46,0,0,0-.55.24c-.31.17-.27.13-.27,0h0l-.06,0a1.11,1.11,0,0,0-.06.26c0,2.43,1.32,4.85,2.82,7.38,3.92,6.27,9.14,11.7,14.69,16.84A172.78,172.78,0,0,0,174,116a191.59,191.59,0,0,0,43.26,20.37A80,80,0,0,1,196.78,134c-14.84-3.59-28.85-10-41.84-18-12.06-7.61-23.81-16.15-32.48-27.8A31.65,31.65,0,0,1,117,77.15C72,91.39,45.11,102.67,44.61,102.88h0c-1.25,1.38-3.69,7.37-4.05,18.71-.8,25.62,9.27,66.56,40.32,97.6s71.91,41.06,97.47,40.2c12.47-.41,17.83-3.21,18.9-4.16l4.31-10.77Zm11.79-157.8a36.58,36.58,0,0,1-10.2-20.8q20-4.86,40.11-9.05-4.2,20.06-9,40.05A36.42,36.42,0,0,1,213.33,86.67Z"/></svg>