<svg id="Layer_3" data-name="Layer 3" xmlns="http://www.w3.org/2000/svg" viewBox="0 0 300 300"><defs><style>.cls-1{fill:#ccac6c;fill-rule:evenodd;}</style></defs><path class="cls-1" d="M7.32,147.73A10.56,10.56,0,0,0,0,157.89,149.92,149.92,0,0,0,5,189a5,5,0,0,0,6.16,3.55l2.55-.69c51.91-14,107.09-20.73,160.06-16.26a242.74,242.74,0,0,1,37.95,5.88c15,3.72,14.68,6-.77,4.92a535,535,0,0,0-101.61,2.36,488.56,488.56,0,0,0-92.24,20.06l-4.58,1.5a150.15,150.15,0,0,0,240.87,48.33c1.76-1.67,1.31-3.58-1-4.24a432.84,432.84,0,0,0-66.39-13.3c-27.72-3.69-55.54-3.87-83.38-2.43-21,1.08-21.29-1.1-.61-5,48.74-9.09,110.81-4.71,162.08,7.86a6.78,6.78,0,0,0,6.53-2.36A149.42,149.42,0,0,0,300,154.09a5.24,5.24,0,0,0-3.88-5.05c-72.87-16.8-60.44-92.08-82-92.08-7.82,0-14.22,16.18-26.89,16.18-11.82,0-18.58-64.59-40.59-64.59-15.65,0-27.6,45.71-40.59,69.28C82.38,120.86,32.5,140.34,7.32,147.73ZM108.41,120.2c7.3-23.47,34-29.33,43.42,0C156.1,133.56,104.17,133.81,108.41,120.2Z"/></svg>