<svg id="Layer_3" data-name="Layer 3" xmlns="http://www.w3.org/2000/svg" viewBox="0 0 300 300"><defs><style>.cls-1{fill:#3df;}</style></defs><path class="cls-1" d="M224.71,117.05,266,140.9V112L240.94,97.49V68.56L215.89,54.09v47.69L158.82,68.83,200.11,45,175.06,30.52,150,45,124.94,30.52,99.89,45l41.29,23.84-57.07,33V54.09l-25,14.47V97.49L34,112v28.93l41.3-23.84V183L34,159.1V188l25.06,14.47v28.93l25,14.47V198.22l57.07,32.95L99.89,255l25,14.47L150,255l25.06,14.47L200.11,255l-41.29-23.84,57.07-32.95v47.69l25.05-14.47V202.51L266,188V159.1L224.71,183Zm-110.8,12.11H138l12-20.83,12,20.83h24.06l-12,20.84,12,20.84H162l-12,20.83-12-20.83H113.91l12-20.84Z"/></svg>