<svg id="Layer_3" data-name="Layer 3" xmlns="http://www.w3.org/2000/svg" viewBox="0 0 300 300"><defs><style>.cls-1{fill:#d6d6d1;}</style></defs><path class="cls-1" d="M225.34,74.68C206.54,54.4,194.39,0,157.57,0s-54.5,54.4-75.36,74.68S7.06,110.28,4.76,148.57C2.45,187.05,55.21,202.49,74,223.16S104.79,300,142.32,300s55.22-56.12,76.15-76.84,75.21-36.11,76.81-74.59C296.87,110.28,244.18,95,225.34,74.68Zm-51.43,130.1c-4.77,6.25-12.59,14-22.84,15.66a21.5,21.5,0,0,1-3.65.31c-8.06,0-15.74-4.5-20.23-12.12-1.43-2.42-2.84-5.42-1.1-7s4.48.18,6.66,1.95c2.6,2.1,3.49,2.88,5.65,3.86,4.24,2,9.52,1.3,13.45-.59,8.45-4.06,15.09-15,18.3-25.19,6.89-22.38,7.17-47,.8-67.55-4.24-13-10.64-20.85-17.54-21.48-5.83-.54-12.12,4.18-18.19,13.64-11.15,17.62-12.23,37.43-13.8,56.34-.4,4.85-.67,8.09-4.7,9-1.82.23-3-1.66-4.06-6.31-5.89-26.58,2.28-67.57,23.34-84,10.67-8.6,25.2-8.81,35.34-.51,11.33,9.27,18.16,24.41,20.88,46.33C195.14,156.56,188.48,184.88,173.91,204.78Z"/></svg>