<svg id="Layer_3" data-name="Layer 3" xmlns="http://www.w3.org/2000/svg" viewBox="0 0 300 300"><defs><style>.cls-1{fill:#d6d6d1;}</style></defs><path class="cls-1" d="M208.31,91.69C193.68,77.07,178.59,27.5,150,27.5S106.32,77.08,91.69,91.69,27.5,121.41,27.5,150s49.58,43.68,64.19,58.31S121.41,272.5,150,272.5s43.68-49.58,58.31-64.19S272.5,178.59,272.5,150,222.92,106.32,208.31,91.69ZM150,194.91a44.93,44.93,0,1,1,18.08-86c-20.4-2.35-28.92,8.7-32.59,19,0,0,0,.09,0,.13l-.09.24h0A65.36,65.36,0,0,0,131.89,150c0,20.34,8.11,36.83,18.1,36.83s18.1-16.49,18.1-36.83c0-18.54-4.84-23.52-8.08-26.69-3.65-3.55-.65-7,7.12-7,9,0,27.78,7,27.78,33.73A44.92,44.92,0,0,1,150,194.9Z"/></svg>