<svg id="Layer_3" data-name="Layer 3" xmlns="http://www.w3.org/2000/svg" viewBox="0 0 300 300"><defs><style>.cls-1{fill:#c462d1;}</style></defs><path class="cls-1" d="M150,40.64C85.86,40.64,34,69.29,34,117c0,36.78,44.21,48.8,46.55,78,1.49,18.5-2.82,75.81,17.86,72.68s13.78-78,25.06-76.93c23.81,2.27,7.83,69.1,28.19,67.64s8.46-63.7,25.69-67.64,7.52,78.81,25.69,78.81S218.7,229.78,220,197.21s46.05-42,46.05-82.08S216,40.64,150,40.64Zm62.3,79c-6.47,10-18.58,3.15-23.63,4.83a176,176,0,0,0-20,8.56c-3.16,1.55-3.2,4.17-.11,5.84,1.63.87,2.84,1.5,3.45,1.8,11.73,5.78,18.33-4.72,27.15,4.76,7.27,7.81-1.48,13-7.5,15-8.28,2.75-12.36,7-21.81,2.42-6.87-3.33,0-6.23-10.37-13.83-1.45-1.06-3.75-2.56-6.61-4.32a6.33,6.33,0,0,0-6,0c-2.51,1.51-4.56,2.83-5.92,3.83-10.35,7.59-3.74,8-10.34,13.11-9.66,7.48-14.08-.23-22.63-2-7.85-1.61-14.1-7.21-6.08-14.77,9.43-8.88,15.12,1.06,26.85-4.71.56-.28,1.58-.82,3-1.56,3-1.62,3-4.23,0-5.79-8-4.13-16-7.88-21.93-9.85-5-1.69-15,5.89-22.45-3.37-4.54-5.61,3.47-8,2-26.42-.53-6.44,14.44-17.66,25.31-1.93,6.72,9.74,4.23,15.72,11.59,23.17,1.18,1.19,9.55,6.11,18.85,11.38a9.85,9.85,0,0,0,9.72,0c9.22-5.26,17.6-10.2,18.84-11.37,9.07-8.59,4.83-12.9,11.73-22.51,9.56-13.33,25.1-4,24.57,2.39C208.34,112.72,215.62,114.49,212.3,119.61Z"/></svg>