<svg id="Layer_3" data-name="Layer 3" xmlns="http://www.w3.org/2000/svg" viewBox="0 0 300 300"><defs><style>.cls-1{fill:#c462d1;}</style></defs><path class="cls-1" d="M150,12.19C69.92,12.19,5.17,48,5.17,107.57c0,45.92,55.19,60.93,58.13,97.36,1.85,23.1-3.52,94.65,22.29,90.74s17.21-97.39,31.29-96c29.73,2.83,9.77,86.26,35.2,84.43s10.56-79.52,32.07-84.43S193.53,298,216.22,298s19.55-49.67,21.12-90.34,57.49-52.41,57.49-102.47S232.42,12.19,150,12.19Zm77.79,98.6c-8.08,12.49-23.21,3.93-29.52,6a222.9,222.9,0,0,0-25,10.69c-3.94,1.93-4,5.21-.13,7.28,2,1.1,3.53,1.88,4.3,2.26,14.64,7.21,22.88-5.9,33.9,5.94,9.08,9.75-1.85,16.27-9.37,18.78-10.33,3.44-15.43,8.73-27.22,3-8.58-4.16,0-7.78-13-17.26-1.82-1.33-4.69-3.21-8.26-5.4a7.87,7.87,0,0,0-7.42,0c-3.14,1.88-5.69,3.52-7.4,4.77-12.92,9.49-4.67,10-12.91,16.37-12,9.34-17.58-.29-28.25-2.46-9.8-2-17.6-9-7.59-18.43,11.78-11.1,18.88,1.32,33.53-5.89.69-.34,2-1,3.69-1.95,3.75-2,3.73-5.27-.05-7.23-9.94-5.15-20-9.83-27.38-12.3-6.31-2.1-18.67,7.36-28-4.2-5.68-7,4.33-10,2.43-33-.66-8,18-22,31.6-2.4C114.14,87.55,111,95,120.23,104.32c1.47,1.49,11.91,7.63,23.52,14.21a12.28,12.28,0,0,0,12.14,0c11.52-6.56,22-12.73,23.52-14.19,11.33-10.72,6-16.1,14.65-28.1,11.94-16.64,31.33-5.06,30.67,3C222.84,102.19,231.93,104.39,227.79,110.79Z"/></svg>