<svg id="Layer_3" data-name="Layer 3" xmlns="http://www.w3.org/2000/svg" viewBox="0 0 300 300"><defs><style>.cls-1{fill:#ff5480;}</style></defs><path class="cls-1" d="M297.4,132.29c-.85-7.2-15.86-13.53-38.36-17.54a17.42,17.42,0,0,1-13.11-10.86A103.36,103.36,0,0,0,176.86,41a14.43,14.43,0,0,1-10.57-10.63C162.32,11.7,156.46,0,150,0s-12.32,11.7-16.29,30.35A14.43,14.43,0,0,1,123.14,41a103.36,103.36,0,0,0-69.07,62.91A17.44,17.44,0,0,1,41,114.75c-22.5,4-37.51,10.34-38.36,17.54s13,13.84,35.22,18.05a14.72,14.72,0,0,1,11.69,11.71,103.12,103.12,0,0,0,69.05,77.14c6.25,2,10.91,7.74,12,14.87C134.74,281.64,141.82,300,150,300s15.26-18.36,19.45-45.94c1.08-7.13,5.74-12.85,12-14.87a103.12,103.12,0,0,0,69.06-77.14,14.72,14.72,0,0,1,11.69-11.71C284.45,146.13,298.26,139.58,297.4,132.29ZM89.12,108.51C109.18,61.18,176,53.65,205.67,98.44a66.94,66.94,0,0,1,5.42,10.34c2.5,6,.78,7.08-3.68,2.36a97.3,97.3,0,0,0-9.12-8.53c-28.74-24.07-67.88-24.15-96.61,0a94.39,94.39,0,0,0-8.9,8.33C88.31,115.63,86.59,114.5,89.12,108.51ZM167.5,132.3c.23,17-7.6,31.15-17.5,31.15s-17.73-14.13-17.49-31.15c.23-16.57,8.06-29.68,17.49-29.68S167.26,115.73,167.5,132.3Zm46.22,23.4C198,212.28,120.85,223.29,91.15,168.09a68.11,68.11,0,0,1-5-12.53c-1.64-5.8.06-6.73,3.85-2.05a91.2,91.2,0,0,0,9.28,10c29.31,27.64,72.13,27.73,101.42,0a89.89,89.89,0,0,0,9.12-9.79C213.7,148.94,215.37,149.8,213.72,155.7Z"/></svg>