<svg id="Layer_3" data-name="Layer 3" xmlns="http://www.w3.org/2000/svg" viewBox="0 0 300 300"><defs><style>.cls-1{fill:#f37;}</style></defs><path class="cls-1" d="M245.66,134.67a13.86,13.86,0,0,1-10.76-9.73A88.69,88.69,0,0,0,175.06,65.1a13.81,13.81,0,0,1-9.72-10.76C161.79,35,156.24,22.5,150,22.5S138.21,35,134.66,54.34a13.81,13.81,0,0,1-9.72,10.76A88.71,88.71,0,0,0,65.1,124.94a13.83,13.83,0,0,1-10.76,9.72C35,138.21,22.5,143.76,22.5,150S35,161.79,54.34,165.33a13.86,13.86,0,0,1,10.76,9.72A88.67,88.67,0,0,0,125,234.91a13.83,13.83,0,0,1,9.72,10.75C138.21,265,143.76,277.5,150,277.5s11.79-12.47,15.33-31.84a13.83,13.83,0,0,1,9.72-10.75,88.67,88.67,0,0,0,59.85-59.86,13.86,13.86,0,0,1,10.76-9.72C265,161.79,277.5,156.24,277.5,150S265,138.21,245.66,134.67ZM100.51,180a56,56,0,0,1-6.79-18.42,98.81,98.81,0,0,0,13.5,14.63c25.11,22.21,60.49,22.28,85.59,0a99.55,99.55,0,0,0,13.47-14.65C196.1,213.73,127.87,225.42,100.51,180Zm34.36-30c0-14.47,6.77-26.2,15.13-26.2s15.13,11.73,15.13,26.2-6.77,26.21-15.13,26.21S134.87,164.48,134.87,150Zm57.91-26.21c-25.11-22.2-60.49-22.28-85.59,0a99.13,99.13,0,0,0-13.47,14.66C103.9,86.28,172.13,74.59,199.49,120a56,56,0,0,1,6.79,18.42A99.39,99.39,0,0,0,192.78,123.79Z"/></svg>