<svg id="Layer_3" data-name="Layer 3" xmlns="http://www.w3.org/2000/svg" viewBox="0 0 300 300"><defs><style>.cls-1{fill:#785b45;}</style></defs><path class="cls-1" d="M247.67,130.28l16.78-29.79-39.9-43.37L193.4,71.39,132.86,37.92l-54.48,29L20,196.53,69.13,262H120l7-15.45L144.11,262l10.1.08,23.67-21.43L187.5,262h49.44L280,202.06ZM105.24,235.71,83,228.41,57.54,193l14.58-32.37,33.74,11.06,9,42.67Zm66.85-25.94L149,230.53,125.9,209.77,114,153.17l35-31.48,35,31.48ZM215,228.41l-22.25,7.3-9.62-21.36,9-42.67,33.74-11.06L240.44,193Z"/></svg>