<svg id="Layer_3" data-name="Layer 3" xmlns="http://www.w3.org/2000/svg" viewBox="0 0 300 300"><defs><style>.cls-1{fill:#785b45;}</style></defs><path class="cls-1" d="M299.67,187.64l-35.79-79.47a3.7,3.7,0,0,1,.15-3.35l17.18-30.51a3.72,3.72,0,0,0-.5-4.34L238.16,23.72a3.71,3.71,0,0,0-4.28-.87L202,37.48a3.73,3.73,0,0,1-3.35-.13L131.91.46a3.75,3.75,0,0,0-3.55,0l-60.2,32a3.78,3.78,0,0,0-1.64,1.76L.33,181.18a3.72,3.72,0,0,0,.41,3.76l54.48,72.59a3.7,3.7,0,0,0,3,1.49h54.6a3.72,3.72,0,0,0,3.39-2.19l5-11.08a3.71,3.71,0,0,1,5.87-1.23l15.08,13.56a3.75,3.75,0,0,0,2.45.95l8.85.07a3.77,3.77,0,0,0,2.52-1l22.56-20.43a3.71,3.71,0,0,1,5.88,1.23l8.06,17.89a3.71,3.71,0,0,0,3.38,2.19h53a3.72,3.72,0,0,0,3-1.55l47.51-66.14A3.68,3.68,0,0,0,299.67,187.64ZM110,206.11l-9.74,21.62a1,1,0,0,1-1.21.53l-22.53-7.39a1,1,0,0,1-.5-.36l-26.57-37a1,1,0,0,1-.09-1L64.3,149.41a1,1,0,0,1,1.21-.53L100,160.21a1,1,0,0,1,.66.73l9.39,44.55A1,1,0,0,1,110,206.11Zm65.39-2.59a1,1,0,0,1-.33.57l-25.54,23a1.06,1.06,0,0,1-1.43,0l-25.55-23a1.13,1.13,0,0,1-.33-.57l-13.49-64a1.08,1.08,0,0,1,.33-1l39-35.09a1.06,1.06,0,0,1,1.43,0l39,35.09a1.08,1.08,0,0,1,.33,1Zm72.76-20-26.56,37a1,1,0,0,1-.5.36l-22.54,7.39a1,1,0,0,1-1.21-.53l-9.74-21.62a1,1,0,0,1-.06-.62l9.38-44.55a1,1,0,0,1,.66-.73l34.53-11.33a1,1,0,0,1,1.22.53l14.92,33.14A1,1,0,0,1,248.17,183.53Z"/></svg>