<svg id="Layer_3" data-name="Layer 3" xmlns="http://www.w3.org/2000/svg" viewBox="0 0 300 300"><defs><style>.cls-1{fill:#fa2;}</style></defs><path class="cls-1" d="M241.64,230.81C306,146.25,239.7,57,170.39,34.67c-45.7-14.73-66.87,8.57-59,26,6.74,15,23.27,20.55,49,34.37,48.57,26.09,79.42,70.3,59,120.36-8.21,20.09-26.6,31.2-39.73,33.08-14,2-28-3-38.69-13.82-6.31-6.39-10.58-15-6.16-19.58,3.66-3.79,6.72-.77,12.27,4.34,13.14,12.11,30.62,6.46,40.47-4.5,17.52-19.5,10.41-68.78-23.49-91.08C129.9,101.39,81.83,103.48,51,141.54,28,169.83,21.32,219,58.89,250.93c29,24.61,64.71,19.83,79.44,15.8,17.76-4.86,29.48.5,45.17-1.47C202.35,262.9,222.29,256.24,241.64,230.81ZM77.38,191.21c-7.46-7.28,3.12-22.36,20-21.33a36.42,36.42,0,0,1,21.4,9c10.91,10,12,16.39,10.77,22.31-.67,3.26-4.87,7.54-12.21-.86C98.47,178.79,89.61,203.16,77.38,191.21Z"/></svg>