<svg id="Layer_3" data-name="Layer 3" xmlns="http://www.w3.org/2000/svg" viewBox="0 0 300 300"><defs><style>.cls-1{fill:#e22;}</style></defs><path class="cls-1" d="M171.53,270.05l-19.44-51.42,78.63,13.15-59.54-51.23L259.75,150l-88.57-30.55,59.54-51.24L152.09,81.37,171.53,30,110.4,59.78V31.5l-8.75,6.41A174.45,174.45,0,0,0,71,68.67a155.63,155.63,0,0,0-20.49,34c-6.6,13.81-9.84,29.39-10.21,44.58,0,.91,0,1.82,0,2.73,0,1.74,0,3.48.13,5.22a110,110,0,0,0,10.06,42A156.09,156.09,0,0,0,71,231.33a174.16,174.16,0,0,0,30.66,30.75l8.75,6.41V240.22ZM113.37,150c0-22.08-13-40-29.05-40a21.77,21.77,0,0,0-8.46,1.73c-3.55,1.49-4,.73-1-1.69A25.18,25.18,0,0,1,91,104c10.1.09,18.59,7.19,23.71,15.68,5.52,9,8,19.76,8,30.31s-2.45,21.34-8,30.31C109.56,188.8,101.07,195.89,91,196a25.09,25.09,0,0,1-16.16-6c-3-2.41-2.51-3.17,1-1.69A21.73,21.73,0,0,0,84.32,190C100.36,190,113.37,172.08,113.37,150ZM64.11,196.27q-1.48-2.37-2.78-4.85c-2.41-4.62-1.59-5.17,1.67-1.1a45.67,45.67,0,0,0,9.27,8.81,32.87,32.87,0,0,0,37.6.28c30.65-21.26,30.64-77.57,0-98.83a32.86,32.86,0,0,0-37.6.29A45.74,45.74,0,0,0,63,109.65c-3.24,4.06-4.07,3.51-1.66-1.1q1.29-2.46,2.76-4.83c8-13,21.54-23.79,37.16-23.65S130.1,91,138,104c8.35,13.65,12.08,30,12,46s-3.67,32.34-12,46c-7.88,13-21.14,23.88-36.71,23.93S72.14,209.32,64.11,196.27Z"/></svg>