<svg id="Layer_3" data-name="Layer 3" xmlns="http://www.w3.org/2000/svg" viewBox="0 0 300 300"><defs><style>.cls-1{fill:#fb1;}</style></defs><path class="cls-1" d="M148.37,103.51c35.43,1.94,32.5,12.46-22.06,49,60.48-24.58,78.83-25.39,113.4,22.53-34.47-73.21-15.44-65.32,26.06-100.95C206.6,95,204.15,92.63,165.74,22.5c16.07,65.36,24.85,70.73-13.29,60.63C86,65.54,12.61,123.94,40.19,193.45c16.32,41.1,61.18,43.09,97.44,20.36,24.09-15.09,56.54-15.3,52.1,14.94-3.28,22.35-44.51,45.94-71.47,13.12,6.29,50.3,97.83,46.9,111.25-7.42,13.1-53-35-89.42-90.27-61.06-40.46,20.78-58.34,10.52-60.71-10.73C74.3,124.63,118.58,101.89,148.37,103.51Z"/></svg>