<svg id="Layer_3" data-name="Layer 3" xmlns="http://www.w3.org/2000/svg" viewBox="0 0 300 300"><defs><style>.cls-1{fill:#588;}</style></defs><path class="cls-1" d="M246.78,171.29a99.69,99.69,0,0,0,0-42.58c7-5.72,13.77-11.53,20.22-17.4A123.07,123.07,0,0,0,242,68q-12.47,4-25.16,8.81A99,99,0,0,0,180,55.56Q177.83,42.26,175,29.33a124.06,124.06,0,0,0-49.95,0q-2.86,12.9-5,26.23A99,99,0,0,0,83.25,76.78Q70.64,72,58,68A123.09,123.09,0,0,0,33,111.3q9.75,8.94,20.2,17.5a99.7,99.7,0,0,0,0,42.4Q42.78,179.77,33,188.7A123,123,0,0,0,58,232q12.6-4,25.23-8.74A99,99,0,0,0,120,244.47c1.46,8.92,3.1,17.68,5,26.2a124.3,124.3,0,0,0,50,0c1.85-8.52,3.5-17.28,4.95-26.2a99.07,99.07,0,0,0,36.86-21.31Q229.49,228,242,232a123.07,123.07,0,0,0,25-43.28C260.55,182.82,253.78,177,246.78,171.29Zm-83,15.6V174.25H136.22v12.64a39.38,39.38,0,0,1,0-73.78v15.23h27.56V113.11a39.38,39.38,0,0,1,0,73.78Z"/></svg>