<svg id="Layer_3" data-name="Layer 3" xmlns="http://www.w3.org/2000/svg" viewBox="0 0 300 300"><defs><style>.cls-1{fill:#6099eb;}</style></defs><path class="cls-1" d="M189.87,5.78c-6.54-2-8.87,1.13-5.23,6.93,17.42,27.78,23.47,57,2.69,90.22-26.18,41.94-97,36.71-115.09,94.43-8.92,28.41-4.82,54.8,10.93,73.72-12.49-8.89-24.4-22.39-29-39.67-14.41-53.72,19.36-89.63,36-109.09,14.65-17.16,24.51-46.71-2.24-60.3-18.32-9.3-44.69-.69-61.1,21.21C-10,132.22-12.19,213,53.91,266.29c18.79,15.15,54.8,33.46,94.12,33.46h0C219.12,304.2,293.37,249,298.49,166.62,303.19,91,253.35,25.24,189.87,5.78Zm37.21,220.3c-27.2,43.14-82.86,40.54-104.37,21.78-13.85-12.08-18.2-35.39-2.52-44.94,30.44-18.57,57.75,43,103.87,19.88C228.13,220.76,229.5,222.24,227.08,226.08Z"/></svg>