<svg id="Layer_3" data-name="Layer 3" xmlns="http://www.w3.org/2000/svg" viewBox="0 0 300 300"><defs><style>.cls-1{fill:#37f;}</style></defs><path class="cls-1" d="M150,144.13c-71.4,18.64-65.09,68.44-62.24,81.59a54.53,54.53,0,0,0,11.53,23.21,81.07,81.07,0,0,1-24.23-31.45c-9.31-22.22-11.34-62.73,33.77-91.86C131,111.32,150,85,123.66,64.18c-26-20.59-56.15-2.25-67.78,11.54C38.9,95.83,30.5,122.58,30.5,150c0,63.28,48.15,119.5,119.5,119.5h0c70.44,0,119.5-56.22,119.5-119.5S221.35,30.5,150,30.5c34.5,8.83,48.67,29.16,53,49.94,3.29,15.89-1.46,50.24-53,63.68Zm0,95.52c-15.8-1.43-25.28-11.54-28.77-21.87-4.39-13,2.44-34.93,28.77-37.85,22.14-2.46,43.34,20.45,83,4-14.29,39.6-56.44,58.12-83,55.74Z"/></svg>