<svg id="Layer_3" data-name="Layer 3" xmlns="http://www.w3.org/2000/svg" viewBox="0 0 300 300"><defs><style>.cls-1{fill:#3fc;}</style></defs><path class="cls-1" d="M256.21,158c18.55-39.83,17.75-82.36,5-111.83C242.13,37.62,216.46,25,165.07,25,82.18,25,37.91,82.55,29.5,116.26,69.7,78.07,150.29,61.6,206.8,86.38c-80.42-2.3-119.41,18.56-153.26,42.13,1.27,23.58,15.39,53.23,30.33,68.17,49.78-16.08,82.72-7.28,89.23-2.68-17.62,1.71-41.36,6.28-61.66,18,17.55,26.36,45.8,30.18,61.73,63,5.52-23.3-4.48-40.25-11-50.17,10.92-2.8,30.93-2,42.67,2.53,2.85-20.66,16.29-41,25.19-54.49-11.79-8.08-55.41-25.59-97.73-22.87C165.64,134.79,216.21,137.5,256.21,158ZM165.32,50.13c38.42-6,74.47,5.74,97.17,17.51a114.59,114.59,0,0,1,2.7,19.1C242.72,66.34,202.72,53.83,165.32,50.13ZM62.8,150.91a61.13,61.13,0,0,1-2.66-9.57A146.46,146.46,0,0,1,115.9,117.4C101.74,122.76,77.47,137,62.8,150.91Z"/></svg>