<svg id="Layer_3" data-name="Layer 3" xmlns="http://www.w3.org/2000/svg" viewBox="0 0 300 300"><defs><style>.cls-1{fill:#4c41b0;}</style></defs><path class="cls-1" d="M298.77,124.37c-7-54-45.36-107.12-130-119-4.37-.61-5.12,1.12-1.68,3.89,27.17,21.83,30.35,55.88,21,78.06-2.36,5.62-8.65,8.29-13.88,5.89-22.71-10.42-46.77-11-66.91-7-3.59.72-5.4-1.65-4-5.24,5.21-13.31,16.94-26.1,34-33.85,4.36-2,4.05-3.89-.72-4.19a107.69,107.69,0,0,0-48.5,8.68c-4.69,2-6.74-.26-4.67-5.26,4.8-11.59,13-22.76,24.92-33.44,3.74-3.36,2.86-5-2-3.78-59.1,15.5-96,61.6-101.14,112.19a7,7,0,0,0,1.73,4.84C18.78,138.48,20,155.82,11.86,174.6a4.1,4.1,0,0,0,0,2.68c1.52,4,6.24,15.24,12.68,20.7a2,2,0,0,0,3.5-1c9.27-28.34,42.27-60.22,91.93-51.35,37.89,6.77,54.55,36.44,52,65.64-3.79,43.57-39.27,70-93.58,64.47-5.32-.54-6,1.26-1.4,4.05,38,23.25,93.87,19.6,128.25-12.78,12.92-12.16,34.26-42.45,31.6-81.66-.34-5,1.48-5.54,4.08-1.24,16.55,27.4,8.52,61.79-2.84,82.17-2.22,4-.83,5.26,3.08,2.92C289.07,240.47,304.81,170.81,298.77,124.37ZM38.26,134A2.2,2.2,0,0,1,34.2,133c-.79-15.34,4.28-31.17,12-40.43,1.46-1.75,3.25-1.24,3.91,1,1.71,5.94,4,10,6.9,13a3.78,3.78,0,0,1-.15,5.5A95.2,95.2,0,0,0,38.26,134Z"/></svg>