<svg id="Layer_3" data-name="Layer 3" xmlns="http://www.w3.org/2000/svg" viewBox="0 0 300 300"><defs><style>.cls-1{fill:#ffdc0d;}</style></defs><path class="cls-1" d="M153.86,102.9c40.15,3.22,91,11.5,143.53,24.07,2.84.68,3.46-.41,1.38-2.46-35.25-34.8-85.27-73.82-127.4-100.62-1.85-1.18-1.6-2.39.58-2.69a488.23,488.23,0,0,1,58.15-3.87c6.27,0,6.43-1.31.36-2.88-36.84-9.52-96-15.49-145-13.33-2.52.11-2.84,1.33-.72,2.7a473.27,473.27,0,0,1,56.57,41.93c2.12,1.85,1.57,3-1.22,2.54-33.52-5.62-71.15-10-101.6-11.47-1.68-.08-2.23,1-1.25,2.33,20.52,28.33,42.69,66.92,53.45,91.57.75,1.74-.08,2.61-1.86,1.95C65,123.82,27.66,113.11,2.06,106.5.18,106-.54,107,.44,108.65,34,166.1,73.52,252.37,89.23,296.32c1.5,4.19,2.74,4,2.85-.48.64-28-3.18-59.1-6.57-87.28-.17-1.44.77-2.1,2.08-1.5,52.72,24.4,90.52,46.71,141.5,79.12,2,1.3,3,.51,2.17-1.76C205.26,215.48,180.8,159,152.46,105,151.78,103.75,152.41,102.78,153.86,102.9ZM94.4,66.06a539.78,539.78,0,0,1,61.13,7.75c11.64,2.21,11.47,3.52-.36,2.91-16.78-.87-32.65-1.69-44.66-1.29a1.35,1.35,0,0,0-1.26,2.14A531.07,531.07,0,0,1,135,135.28c3.7,9.95,2.48,10.5-2.66,1.21-13.55-24.42-27-46.06-39.27-68.25C92.32,67,92.94,66,94.4,66.06Z"/></svg>