<svg id="Layer_3" data-name="Layer 3" xmlns="http://www.w3.org/2000/svg" viewBox="0 0 300 300"><defs><style>.cls-1{fill:#ffb1d8;fill-rule:evenodd;}</style></defs><path class="cls-1" d="M259.68,196.65c5-17.73,45.08-55.19,39.85-74.44s-61.74-24.29-78.7-37.32S175.39,3.77,154.91,3.77s-45.82,64-58.71,76.17S5,98.46.25,117.35,58,178.61,68.73,203.12s-.94,80.52,18.64,91.1,62.7-23.65,87.67-27.76,68,24,81.68,12.72S254.73,214.37,259.68,196.65Zm-79.47,3c-5,5.6-13.35,6-19.15.74-76-68.31-32.14-104.36.47-78.3a8.88,8.88,0,0,0,11,.07C197.05,102.38,240.59,131.58,180.21,199.61Z"/></svg>