<svg id="Layer_3" data-name="Layer 3" xmlns="http://www.w3.org/2000/svg" viewBox="0 0 300 300"><defs><style>.cls-1{fill:#795891;}</style></defs><path class="cls-1" d="M26,224.88c9.56,7.07,12.59-4.82,11.53-20-1.19-17.13,6.36-48.48,11.57-32.32a.45.45,0,0,1,0,.11c.34,1.37.69,2.73,1.05,4.1v0h0c14.54,54.73,51.25,109.24,94.13,113.24,25.45,2.38,41.81-21.09,55.55-17.89,10.53,2.45,8.84,13.34,4.88,21.12-1.09,2.15-.31,2.89,1.79,1.7,26.62-15.09,27.66-39.47,4.41-47.19-21.72-7.21-50,7.06-53.94-6.53s12.26-18.56,36.2-29.57c11.67-5.37,31-17.31,45.48-36.71h0c1.19-1.59,2.33-3.23,3.44-4.92l.05-.07c26.62-35.37,12.79,51,30.32,48,21.42-3.78,33.63-51.34,24.5-76.54-10.12-27.87-39.47-1.15-39.69-20.23.06-3,0-6.07-.26-9.22C252.52,52.25,215.12-.86,137.61,4.88c-50.88,3.76-94.47,41-94.5,117.9h0C39.22,149.61.88,112.79,0,151.24-.46,172.27,10.93,213.77,26,224.88Zm79.6-138c-1-2.11-.25-2.87,1.79-1.7,18.43,10.61,38.82,18.77,59.81,18.59,17.49-.1,34.93-5.39,46.72-19.63A77.7,77.7,0,0,0,219.51,76c1-1.65,2.11-1.45,2.37.46,2.94,21.74-14.29,40.84-33.72,46.52-26.37,8.26-56.37-1.84-74-23A66,66,0,0,1,105.55,86.92Z"/></svg>