<svg id="Layer_3" data-name="Layer 3" xmlns="http://www.w3.org/2000/svg" viewBox="0 0 300 300"><defs><style>.cls-1{fill:#36ba45;}</style></defs><path class="cls-1" d="M157.17,145c80.5,8.21,136.68-42.45,142.82-133.9.16-2.38-1.34-3.29-3.37-2-57,35-136,19.05-154.11,112.18-1.72,8.82-4.59,5.38-5.64.58C120.73,47.62,71.24,80.19,8.54,42.36c-1.84-1.11-3.36-.26-3.37,1.89-.44,92.05,73.55,112.17,112,103,12.67-3,13-.57,12.44,13a61.94,61.94,0,0,1-2.82,17c-7.2,22.62-17.44,18.29-41.68,41.23-16.3,15.43-16,47.16,12.5,62.9,1.7,1,2.39.25,1.5-1.48-11.2-21.76-9.92-42,6.05-53,8.56-5.84,23.38-8.26,31.51-19.46a1,1,0,0,1,1.9.16c10.68,21.39,20.55,20.25,28.07,34.75,5.78,11.16-2.13,22.73-10.66,27.35-11.08,6-34.18,6.87-44.61-17.52-.82-1.92-1.72-1.83-2.12.22-6.21,32,32.41,49.26,59.17,32.48,20.91-13.1,28.09-38.28,17.56-57.09-2.42-4.32-1-5.7,3.11-3,16.9,11.19,20,32.18,8.65,53.41-.93,1.76-.27,2.43,1.5,1.51,25.38-13.35,27-61.81-6.82-77.93-15.67-7.47-25.4-8.51-33.38-18.1-4.71-5.66-7.67-18-8.5-21.78C147.1,146.32,150.88,144.39,157.17,145Zm38.19-59.25c17.14-8.14,34.18-12.13,50-22.21,2.51-1.6,3.14-1,1.52,1.55a49.43,49.43,0,0,1-7,8.39c-11,10.65-26.08,17-39.32,23.28-16.77,7.57-31.06,16.64-44.43,29.23-2.06,2-2.88,1.39-1.8-1.24C161.66,107,178.25,93.55,195.36,85.78Zm-87.72,31.76c-7.27-2.4-15.14-3.84-23.19-6-14.74-3.67-30.9-11.63-39-25.2-1.29-2.17-.58-2.85,1.56-1.51a101.32,101.32,0,0,0,17.72,9.12c14.94,6,32.11,7.67,46.5,15.69,6.35,3.54,12.19,9,15.23,15.69,1.05,2.3.28,2.93-1.69,1.35A51.88,51.88,0,0,0,107.64,117.54Z"/></svg>