<svg id="Layer_3" data-name="Layer 3" xmlns="http://www.w3.org/2000/svg" viewBox="0 0 300 300"><defs><style>.cls-1{fill:#91e3ff;}</style></defs><path class="cls-1" d="M299.78,100.6c-1-2.14-28-15.1-30.19-18.57s4.17-32.14,3.35-33.8-27.43-18.95-29-17.39c-1.16,1.13-5.53,33.33-7.2,52.8C221,72.89,192.83,55.29,176.25,45.87c19.07-8.35,49.47-24.26,49.76-25.75.41-2.05-25.65-16.49-27.84-16.67S170.44,18.92,166.42,18.6,141.9,2.3,139.63,2.13s-31.16,12.91-31.46,15c-.21,1.5,25,18.26,41.09,27.6-18.6,8.09-50.77,23.57-68.76,33,4-18.91,8.86-50.28,7.84-51.13-1.42-1.18-29.79,12.41-31.57,15s-3.8,29.28-6.2,32.3-30.65,13-32.09,15.31S10,122,11.65,122.64c1.2.51,33.54-14.19,52.19-23.69C59.6,118.28,53,153.31,50,173.38c-15.08-11.81-41.38-29.81-42.7-29.19C5.43,145-.84,177,.1,179.21S24.73,195.74,26.55,199s-8.37,34.42-7.07,36.82,26,22.08,27.48,21.13c1.07-.7,8.9-37.49,12.14-59.09,15.36,12.24,43.6,33.15,60.31,44.49-20.63,9.26-54.68,26.8-54.77,28.19-.12,1.9,26,21.67,28.75,22.09s31.7-17.24,35.41-17.2,27.14,22.1,30,22.45,35.84-15.5,35.78-17.43c0-1.41-29.15-23.7-47-35.9,20.25-8.86,55.57-26.06,75-36.46-3.09,22.33-6.52,60.6-5.59,61.41,1.3,1.12,34-15,35.64-17.35s1.88-36.35,3.84-38.78,33.77-14.83,35-17,5.21-36.43,3.2-37.31c-1.45-.64-35.64,15.26-55.38,25.49,3-20.74,7.14-57.4,8.54-77.73,17.24,11.63,47.73,30.13,48.81,29.33C298.22,135,300.77,102.73,299.78,100.6ZM187.54,167.67c-8.17-.23-20.15-3.32-28,.45-8.39,4-12.56,15.1-18,21.78-3.83-7.29-6.43-20.25-13.32-25-6.24-4.32-16.51-.79-24.93-1.72,4.9-7.94,14.12-16.3,15.4-24.29s-5.36-15.69-7.72-23.06c8.43-.08,19.92,3.23,28.16-.86,7.7-3.83,12.29-14.87,16.39-20.52,3.19,6.31,4.68,16.56,11.63,21s19.33,3,26.73,4.15c-4.17,6-14.6,14.17-15.73,22.62C176.92,151,185.21,160.18,187.54,167.67Z"/></svg>