<svg id="Layer_3" data-name="Layer 3" xmlns="http://www.w3.org/2000/svg" viewBox="0 0 300 300"><defs><style>.cls-1{fill:#7e9c99;}</style></defs><path class="cls-1" d="M269.87,184.47a2.63,2.63,0,0,1-.86-2.69,119.11,119.11,0,0,0,2-48.38,3,3,0,0,1,1.1-2.78c8-6.33,15.88-12.77,23.44-19.29a3,3,0,0,0,1-3.1,149,149,0,0,0-27.52-52,2.85,2.85,0,0,0-3.11-.88q-14.38,4.66-29,10.18a2.87,2.87,0,0,1-3-.57,122.75,122.75,0,0,0-43.58-26,3,3,0,0,1-2-2.38Q186,20.9,182.94,5.42A3.05,3.05,0,0,0,180.59,3a156.44,156.44,0,0,0-61.18,0,3,3,0,0,0-2.35,2.4Q114,20.87,111.6,36.56a3,3,0,0,1-2,2.38,123,123,0,0,0-43.5,25.91,2.84,2.84,0,0,1-3,.57Q48.65,60,34.09,55.31A2.85,2.85,0,0,0,31,56.2a149,149,0,0,0-27.51,52,3,3,0,0,0,.95,3.1q11.43,9.93,23.44,19.41A2.93,2.93,0,0,1,29,133.5a118.9,118.9,0,0,0,2,48.19,2.62,2.62,0,0,1-.86,2.67Q19.18,193.45,9,202.82a2.57,2.57,0,0,0-.63,2.9,149.68,149.68,0,0,0,30.48,47,2.94,2.94,0,0,0,3,.77q13.29-4.07,26.61-8.87a2.89,2.89,0,0,1,2.82.5,123,123,0,0,0,41.58,22.51,2.69,2.69,0,0,1,1.87,2q2.51,13.31,5.52,25.92a2.68,2.68,0,0,0,2.16,2,156.56,156.56,0,0,0,55.29,0,2.68,2.68,0,0,0,2.17-2q3-12.6,5.51-25.92a2.72,2.72,0,0,1,1.88-2A123,123,0,0,0,228.85,245a2.9,2.9,0,0,1,2.83-.5q13.37,4.83,26.52,8.93a2.93,2.93,0,0,0,3-.77,149.58,149.58,0,0,0,30.49-47,2.58,2.58,0,0,0-.63-2.9Q280.91,193.58,269.87,184.47Zm-99.57,25-.38-20.39a1.24,1.24,0,0,0-1.24-1.15H131.32a1.26,1.26,0,0,0-1.25,1.15l-.37,20.39a1.36,1.36,0,0,1-2,1.23,58,58,0,0,1-.87-107.85,1.44,1.44,0,0,1,2.08,1.34l.74,25.53a1.29,1.29,0,0,0,1.28,1.2h38.1a1.28,1.28,0,0,0,1.28-1.2l.74-25.53a1.44,1.44,0,0,1,2.08-1.34,58,58,0,0,1-.87,107.85A1.35,1.35,0,0,1,170.3,209.48Z"/></svg>