<svg xmlns="http://www.w3.org/2000/svg" xmlns:xlink="http://www.w3.org/1999/xlink" width="100%" height="100%" preserveAspectRatio="none" viewBox="0 0 1080 1080"><defs><radialGradient id="a" cx="-376.87" cy="-1240.87" r="2592.15" gradientUnits="userSpaceOnUse"><stop offset="0.01" stop-color="#181f10"/><stop offset="1" stop-color="#18240c"/></radialGradient><clipPath id="b"><rect width="1080" height="1080" fill="none"/></clipPath><radialGradient id="c" cx="-518.04" cy="-59.4" r="310.27" gradientTransform="matrix(-2.74, -0.52, 0.39, -3.72, -560.56, -524.19)" gradientUnits="userSpaceOnUse"><stop offset="0" stop-color="#1e2b0c"/><stop offset="0.43" stop-color="#c8e89e"/><stop offset="0.49" stop-color="#bde28c"/><stop offset="0.66" stop-color="#9fd15c"/><stop offset="0.8" stop-color="#89c43a"/><stop offset="0.92" stop-color="#7cbd25"/><stop offset="1" stop-color="#77ba1d"/></radialGradient><radialGradient id="d" cx="468.34" cy="971.35" r="611.32" xlink:href="#a"/><radialGradient id="e" cx="-558.72" cy="-59.4" r="438.08" gradientTransform="matrix(-2.74, -0.52, 0.39, -3.72, -560.56, -524.19)" gradientUnits="userSpaceOnUse"><stop offset="0" stop-color="#1e2b0c"/><stop offset="0.18" stop-color="#6e8057"/><stop offset="0.25" stop-color="#728559"/><stop offset="0.45" stop-color="#86ab54"/><stop offset="0.66" stop-color="#9fd15c"/><stop offset="0.8" stop-color="#89c43a"/><stop offset="0.92" stop-color="#7cbd25"/><stop offset="1" stop-color="#77ba1d"/></radialGradient><radialGradient id="f" cx="-402.4" cy="-146.13" r="371.57" gradientTransform="matrix(-2.74, -0.52, 0.39, -3.72, -560.56, -524.19)" gradientUnits="userSpaceOnUse"><stop offset="0" stop-color="#1e2b0c"/><stop offset="0.43" stop-color="#769150"/><stop offset="0.49" stop-color="#8fcc40"/><stop offset="0.66" stop-color="#9fd15c"/><stop offset="0.8" stop-color="#89c43a"/><stop offset="0.92" stop-color="#7cbd25"/><stop offset="1" stop-color="#77ba1d"/></radialGradient><radialGradient id="g" cx="801.5" cy="507.5" r="0.5" gradientTransform="translate(-120.96 -311.04) scale(2.16)" xlink:href="#c"/></defs><rect width="1080" height="1080" fill="url(#a)"/><g clip-path="url(#b)"><path d="M168.48,833.61l1.9,315.36,1079.7-12-20.91-1020.6s-73.57,288-312.88,501C753.41,762.2,513.91,872.29,168.48,833.61Z" opacity="0.2" fill="url(#c)" style="isolation:isolate"/><path d="M-192.39,702.91l-58,294.88,1267.21,454,170.29-960.9S1046,727.92,724.9,823.31C506.5,888.3,204.81,887.76-192.39,702.91Z" fill="url(#d)"/><path d="M-187,713.9l-59.1,294.6L1019.3,1470.74,1193.21,511s-142,236-463.52,329.4C511.21,903.81,209.52,901.39-187,713.9Z" opacity="0.6" fill="url(#e)" style="isolation:isolate"/><path d="M-187,713.9-227.4,915.41C253.69,1058,561.49,949.1,729.91,840.3,511.21,903.81,209.52,901.39-187,713.9Z" opacity="0.5" fill="url(#f)" style="isolation:isolate"/><path d="M-155.11,732.39l-84.65,282.81L975.61,1680,1233.3,755.52s-162,211.21-489.29,251.6C521.29,1034.64,222,983.1-155.11,732.39Z" opacity="0.3" fill="url(#g)" style="isolation:isolate"/></g></svg>