<?xml version="1.0" encoding="utf-8"?>
<!-- Generator: Adobe Illustrator 16.0.0, SVG Export Plug-In . SVG Version: 6.00 Build 0)  -->
<!DOCTYPE svg PUBLIC "-//W3C//DTD SVG 1.1//EN" "http://www.w3.org/Graphics/SVG/1.1/DTD/svg11.dtd">
<svg version="1.1" xmlns="http://www.w3.org/2000/svg" xmlns:xlink="http://www.w3.org/1999/xlink" x="0px" y="0px" width="1600px"
	 height="900px" viewBox="0 0 1600 900" preserveAspectRatio="none" enable-background="new 0 0 1600 900" xml:space="preserve">
<g id="Layer_1">
</g>
<g id="Isolation_Mode">
	<radialGradient id="SVGID_1_" cx="4.7397" cy="2.9297" r="1852.8976" gradientUnits="userSpaceOnUse">
		<stop  offset="0" style="stop-color:#F5FFE8"/>
		<stop  offset="1" style="stop-color:#A3D160"/>
	</radialGradient>
	<rect fill="url(#SVGID_1_)" width="1600" height="900"/>
	<linearGradient id="SVGID_2_" gradientUnits="userSpaceOnUse" x1="-1" y1="450" x2="1600" y2="450">
		<stop  offset="0" style="stop-color:#D0FF94"/>
		<stop  offset="0.7204" style="stop-color:#8BB84F"/>
	</linearGradient>
	<path opacity="0.5" fill="url(#SVGID_2_)" d="M0,135h868.66H1120c24.85,0,45,20.15,45,45s-20.15,45-45,45H961.93H885
		c-24.85,0-45,20.15-45,45s20.15,45,45,45h90.16H1026c24.85,0,45,20.15,45,45s-20.15,45-45,45H923.56H675c-24.85,0-45,20.15-45,45
		s20.15,45,45,45h208.97H1074c24.85,0,45,20.15,45,45s-20.15,45-45,45H879.9H774c-24.85,0-45,20.15-45,45s20.15,45,45,45h101.83H915
		c24.85,0,45,20.15,45,45s-20.15,45-45,45h-43.24H618c-24.85,0-45,20.15-45,45s20.15,45,45,45h249.7H1092c24.85,0,45,20.15,45,45
		h463V0H-1L0,135z"/>
	<linearGradient id="SVGID_3_" gradientUnits="userSpaceOnUse" x1="728.6738" y1="450" x2="1600" y2="450">
		<stop  offset="0" style="stop-color:#ACD474"/>
		<stop  offset="0.7957" style="stop-color:#7DAB41"/>
	</linearGradient>
	<path fill="url(#SVGID_3_)" d="M924.5,900H1600V0h-145.5h-200.25H901.5c-16.57,0-30,13.43-30,30s13.43,30,30,30h145.04h5.96
		c16.57,0,30,13.43,30,30s-13.43,30-30,30h-8.67h-31.33c-16.57,0-30,13.43-30,30s13.43,30,30,30h233.61h22.39
		c16.57,0,30,13.43,30,30s-13.43,30-30,30h-25.1h-48.9c-16.57,0-30,13.43-30,30s13.43,30,30,30h46.19h175.81c16.57,0,30,13.43,30,30
		s-13.43,30-30,30h-178.53H934.5c-16.57,0-30,13.43-30,30s13.43,30,30,30h272.24h1.76c16.57,0,30,13.43,30,30s-13.43,30-30,30
		h-61.52H1018.5c-16.57,0-30,13.43-30,30s13.43,30,30,30h49.5c8.5,0,15.06,3.93,15.06,3.93c9.06,5.16,15.44,14.89,15.44,26.07
		c0,16.57-13.43,30-30,30h-41.04H889.5c-16.57,0-30,13.43-30,30s13.43,30,30,30h78.21h366.79c16.57,0,30,13.43,30,30
		s-13.43,30-30,30H907.95H775.5c-16.57,0-30,13.43-30,30s13.43,30,30,30h72.69h209.31c16.57,0,30,13.43,30,30s-13.43,30-30,30
		H788.43H979.5c-16.57,0-30,13.43-30,30s13.43,30,30,30H728.67H924.5z"/>
	<linearGradient id="SVGID_4_" gradientUnits="userSpaceOnUse" x1="670.2446" y1="450" x2="1608.7236" y2="450">
		<stop  offset="0" style="stop-color:#ACD474"/>
		<stop  offset="0.7957" style="stop-color:#79A341"/>
	</linearGradient>
	<path fill="url(#SVGID_4_)" d="M1328,225h-25c-8.28,0-15,6.72-15,15s6.72,15,15,15h64.24H1398c8.28,0,15,6.72,15,15s-6.72,15-15,15
		h-0.88H1329c-8.28,0-15,6.72-15,15s6.72,15,15,15h83.74H1502c8.28,0,15,6.72,15,15s-6.72,15-15,15h-87.91H1391
		c-8.28,0-15,6.72-15,15s6.72,15,15,15h24.45H1428c8.28,0,15,6.72,15,15s-6.72,15-15,15h-11.19H1225c-8.28,0-15,6.72-15,15
		s6.72,15,15,15h193.16H1461c8.28,0,15,6.72,15,15s-6.72,15-15,15h-41.48H1357c-8.28,0-15,6.72-15,15s6.72,15,15,15h63.88H1521
		c8.28,0,15,6.72,15,15s-6.72,15-15,15h-98.77H1339c-8.28,0-15,6.72-15,15s6.72,15,15,15h84.59H1438c8.28,0,15,6.72,15,15
		s-6.72,15-15,15h-13.06H1391c-8.28,0-15,6.72-15,15s6.72,15,15,15h35.3h64.7c8.28,0,15,6.72,15,15s-6.72,15-15,15h-63.34H1358
		c-8.28,0-15,6.72-15,15s6.72,15,15,15h82.85H1475c8.28,0,15,6.72,15,15s-6.72,15-15,15h-16.95H1428c-8.28,0-15,6.72-15,15
		s6.72,15,15,15h25.64H1521c8.28,0,15,6.72,15,15s-6.72,15-15,15h-98.45H1249c-8.28,0-15,6.72-15,15s6.72,15,15,15h142.46H1428
		c8.28,0,15,6.72,15,15s-6.72,15-15,15h-67.63H1291c-8.28,0-15,6.72-15,15s6.72,15,15,15h38.28H1469c8.28,0,15,6.72,15,15
		s-6.72,15-15,15h-170.81H1162c-8.28,0-15,6.72-15,15h453V0H988c0,8.28,6.72,15,15,15h125.21H1256c8.28,0,15,6.72,15,15
		s-6.72,15-15,15h-97.91H972c-8.28,0-15,6.72-15,15s6.72,15,15,15h215.97H1225c8.28,0,15,6.72,15,15s-6.72,15-15,15h-7.15H1129
		c-8.28,0-15,6.72-15,15s6.72,15,15,15h118.72H1461c8.28,0,15,6.72,15,15s-6.72,15-15,15h-183.4H1175c-8.28,0-15,6.72-15,15
		s6.72,15,15,15h132.48H1328c8.28,0,15,6.72,15,15c0,5.59-3.06,10.45-7.59,13.04C1335.41,223.04,1332.67,225,1328,225z"/>
	<g opacity="0.8">
		<path fill="#FFFFFF" d="M1600,690h-117.5c-16.57,0-30,13.43-30,30s13.43,30,30,30h32.18h28.82c16.57,0,30,13.43,30,30
			s-13.43,30-30,30h-26.11H1226.5c-16.57,0-30,13.43-30,30s13.43,30,30,30H1600V690z"/>
		<path fill="#FFFFFF" d="M1046.5,30h164.96h41.04c16.57,0,30,13.43,30,30c0,11.18-6.13,20.91-15.19,26.07c0,0-5.48,3.93-14.81,3.93
			h-50c-16.57,0-30,13.43-30,30s13.43,30,30,30h228.48h61.52c16.57,0,30,13.43,30,30s-13.43,30-30,30h-1.76h-64.24
			c-16.57,0-30,13.43-30,30s13.43,30,30,30h95.47H1600V0h-583.5C1016.5,16.57,1029.93,30,1046.5,30z"/>
	</g>
</g>
</svg>
