<?xml version="1.0" encoding="utf-8"?>
<!-- Generator: Adobe Illustrator 16.0.0, SVG Export Plug-In . SVG Version: 6.00 Build 0)  -->
<!DOCTYPE svg PUBLIC "-//W3C//DTD SVG 1.1//EN" "http://www.w3.org/Graphics/SVG/1.1/DTD/svg11.dtd">
<svg version="1.1" id="Layer_1" xmlns="http://www.w3.org/2000/svg" xmlns:xlink="http://www.w3.org/1999/xlink" x="0px" y="0px"
	 width="100%" height="100%" preserveAspectRatio="none" viewBox="0 0 500 500" enable-background="new 0 0 500 500" xml:space="preserve">
<radialGradient id="SVGID_1_" cx="-256.4893" cy="1427.0908" r="2592.1499" gradientTransform="matrix(0.463 0 0 -0.463 -55.7312 86.2127)" gradientUnits="userSpaceOnUse">
	<stop  offset="0.01" style="stop-color:#1B1B1B"/>
	<stop  offset="1" style="stop-color:#1E1E1E"/>
</radialGradient>
<rect fill="url(#SVGID_1_)" width="500" height="500"/>
<g>
	<defs>
		<rect id="SVGID_2_" width="500" height="500"/>
	</defs>
	<clipPath id="SVGID_3_">
		<use xlink:href="#SVGID_2_"  overflow="visible"/>
	</clipPath>
	<g clip-path="url(#SVGID_3_)">
		
			<radialGradient id="SVGID_4_" cx="-572.2295" cy="636.7383" r="310.2715" gradientTransform="matrix(-1.2685 -0.2407 -0.1806 1.7222 -224.0162 -1250.0325)" gradientUnits="userSpaceOnUse">
			<stop  offset="0" style="stop-color:#242424"/>
			<stop  offset="0.43" style="stop-color:#D6D6D6"/>
			<stop  offset="0.49" style="stop-color:#CDCDCD"/>
			<stop  offset="0.66" style="stop-color:#B5B5B5"/>
			<stop  offset="0.8" style="stop-color:#A3A3A3"/>
			<stop  offset="0.92" style="stop-color:#999999"/>
			<stop  offset="1" style="stop-color:#959595"/>
		</radialGradient>
		<path opacity="0.2" fill="url(#SVGID_4_)" enable-background="new    " d="M78,385.93l0.88,146l499.86-5.56l-9.68-472.5
			c0,0-34.06,133.33-144.85,231.94C348.8,352.87,237.92,403.84,78,385.93z"/>
		
			<radialGradient id="SVGID_5_" cx="588.7393" cy="-785.1211" r="611.3243" gradientTransform="matrix(0.463 0 0 -0.463 -55.7312 86.2127)" gradientUnits="userSpaceOnUse">
			<stop  offset="0.01" style="stop-color:#1B1B1B"/>
			<stop  offset="1" style="stop-color:#1E1E1E"/>
		</radialGradient>
		<path fill="url(#SVGID_5_)" d="M-89.07,325.42l-26.85,136.52l586.67,210.19l78.84-444.86c0,0-65.33,109.74-213.99,153.9
			C234.49,411.25,94.82,411-89.07,325.42z"/>
		
			<radialGradient id="SVGID_6_" cx="-612.9082" cy="636.7393" r="438.0805" gradientTransform="matrix(-1.2685 -0.2407 -0.1806 1.7222 -224.0162 -1250.0325)" gradientUnits="userSpaceOnUse">
			<stop  offset="0" style="stop-color:#242424"/>
			<stop  offset="0.18" style="stop-color:#767676"/>
			<stop  offset="0.25" style="stop-color:#7A7A7A"/>
			<stop  offset="0.45" style="stop-color:#969696"/>
			<stop  offset="0.66" style="stop-color:#B5B5B5"/>
			<stop  offset="0.8" style="stop-color:#A3A3A3"/>
			<stop  offset="0.92" style="stop-color:#999999"/>
			<stop  offset="1" style="stop-color:#959595"/>
		</radialGradient>
		<path opacity="0.6" fill="url(#SVGID_6_)" enable-background="new    " d="M-86.57,330.51l-27.36,136.39l585.83,214l80.51-444.32
			c0,0-65.74,109.26-214.59,152.5C236.67,418.43,97,417.31-86.57,330.51z"/>
		
			<radialGradient id="SVGID_7_" cx="-456.5889" cy="723.4688" r="371.5696" gradientTransform="matrix(-1.2685 -0.2407 -0.1806 1.7222 -224.0162 -1250.0325)" gradientUnits="userSpaceOnUse">
			<stop  offset="0" style="stop-color:#242424"/>
			<stop  offset="0.43" style="stop-color:#828282"/>
			<stop  offset="0.49" style="stop-color:#AAAAAA"/>
			<stop  offset="0.66" style="stop-color:#B5B5B5"/>
			<stop  offset="0.8" style="stop-color:#A3A3A3"/>
			<stop  offset="0.92" style="stop-color:#999999"/>
			<stop  offset="1" style="stop-color:#959595"/>
		</radialGradient>
		<path opacity="0.5" fill="url(#SVGID_7_)" enable-background="new    " d="M-86.57,330.51l-18.7,93.29
			c222.73,66.01,365.23,15.6,443.2-34.77C236.67,418.43,97,417.31-86.57,330.51z"/>
		
			<radialGradient id="SVGID_8_" cx="857.5" cy="-152.5" r="0.5" gradientTransform="matrix(1 0 0 -1 -112 211)" gradientUnits="userSpaceOnUse">
			<stop  offset="0" style="stop-color:#242424"/>
			<stop  offset="0.43" style="stop-color:#D6D6D6"/>
			<stop  offset="0.49" style="stop-color:#CDCDCD"/>
			<stop  offset="0.66" style="stop-color:#B5B5B5"/>
			<stop  offset="0.8" style="stop-color:#A3A3A3"/>
			<stop  offset="0.92" style="stop-color:#999999"/>
			<stop  offset="1" style="stop-color:#959595"/>
		</radialGradient>
		<path opacity="0.3" fill="url(#SVGID_8_)" enable-background="new    " d="M-71.81,339.07L-111,470l562.67,307.78l119.3-428
			c0,0-75,97.78-226.52,116.48C241.34,479,102.78,455.14-71.81,339.07z"/>
	</g>
</g>
</svg>
