<?xml version="1.0" encoding="utf-8"?>
<!-- Generator: Adobe Illustrator 16.0.0, SVG Export Plug-In . SVG Version: 6.00 Build 0)  -->
<!DOCTYPE svg PUBLIC "-//W3C//DTD SVG 1.1//EN" "http://www.w3.org/Graphics/SVG/1.1/DTD/svg11.dtd">
<svg version="1.1" xmlns="http://www.w3.org/2000/svg" xmlns:xlink="http://www.w3.org/1999/xlink" x="0px" y="0px" width="1600px"
	 height="900px" viewBox="0 0 1600 900" enable-background="new 0 0 1600 900" preserveAspectRatio="none" xml:space="preserve">
<g id="Layer_1">
</g>
<g id="Isolation_Mode">
	<radialGradient id="SVGID_1_" cx="4.7397" cy="2.9297" r="1852.8976" gradientUnits="userSpaceOnUse">
		<stop  offset="0" style="stop-color:#FFFFFF"/>
		<stop  offset="1" style="stop-color:#8CC63F"/>
	</radialGradient>
	<rect opacity="0.3" fill="url(#SVGID_1_)" width="1600" height="900"/>
	<linearGradient id="SVGID_2_" gradientUnits="userSpaceOnUse" x1="0" y1="450" x2="1600" y2="450">
		<stop  offset="0" style="stop-color:#A9F04C"/>
		<stop  offset="0.5269" style="stop-color:#8CC63F"/>
		<stop  offset="1" style="stop-color:#77A836"/>
	</linearGradient>
	<path opacity="0.2" fill="url(#SVGID_2_)" d="M0,135h434.66H686c24.85,0,45,20.15,45,45s-20.15,45-45,45H527.93H451
		c-24.85,0-45,20.15-45,45s20.15,45,45,45h90.16H592c24.85,0,45,20.15,45,45s-20.15,45-45,45H489.56H241c-24.85,0-45,20.15-45,45
		s20.15,45,45,45h208.97H640c24.85,0,45,20.15,45,45s-20.15,45-45,45H445.9H340c-24.85,0-45,20.15-45,45s20.15,45,45,45h101.83H481
		c24.85,0,45,20.15,45,45s-20.15,45-45,45h-43.24H184c-24.85,0-45,20.15-45,45s20.15,45,45,45h249.7H658c24.85,0,45,20.15,45,45h897
		V0H0V135z"/>
	<linearGradient id="SVGID_3_" gradientUnits="userSpaceOnUse" x1="584.6738" y1="450" x2="1600" y2="450">
		<stop  offset="0" style="stop-color:#A9F04C"/>
		<stop  offset="0.5269" style="stop-color:#8CC63F"/>
		<stop  offset="1" style="stop-color:#77A836"/>
	</linearGradient>
	<path opacity="0.2" fill="url(#SVGID_3_)" d="M780.5,900H1600V0h-289.5h-200.25H757.5c-16.57,0-30,13.43-30,30s13.43,30,30,30
		h145.04h5.96c16.57,0,30,13.43,30,30s-13.43,30-30,30h-8.67H868.5c-16.57,0-30,13.43-30,30s13.43,30,30,30h233.61h22.39
		c16.57,0,30,13.43,30,30s-13.43,30-30,30h-25.1h-48.9c-16.57,0-30,13.43-30,30s13.43,30,30,30h46.19h175.81c16.57,0,30,13.43,30,30
		s-13.43,30-30,30h-178.53H790.5c-16.57,0-30,13.43-30,30s13.43,30,30,30h272.24h1.76c16.57,0,30,13.43,30,30s-13.43,30-30,30
		h-61.52H874.5c-16.57,0-30,13.43-30,30s13.43,30,30,30H924c8.5,0,15.06,3.93,15.06,3.93c9.06,5.16,15.44,14.89,15.44,26.07
		c0,16.57-13.43,30-30,30h-41.04H745.5c-16.57,0-30,13.43-30,30s13.43,30,30,30h78.21h366.79c16.57,0,30,13.43,30,30
		s-13.43,30-30,30H763.95H631.5c-16.57,0-30,13.43-30,30s13.43,30,30,30h72.69H913.5c16.57,0,30,13.43,30,30s-13.43,30-30,30H644.43
		H835.5c-16.57,0-30,13.43-30,30s13.43,30,30,30H584.67H780.5z"/>
	<linearGradient id="SVGID_4_" gradientUnits="userSpaceOnUse" x1="687.5962" y1="450" x2="1608.5608" y2="450">
		<stop  offset="0" style="stop-color:#BBF076"/>
		<stop  offset="0.5269" style="stop-color:#8CC63F"/>
		<stop  offset="1" style="stop-color:#77A836"/>
	</linearGradient>
	<path opacity="0.3" fill="url(#SVGID_4_)" d="M1340,225h-25c-8.28,0-15,6.72-15,15s6.72,15,15,15h64.24H1410c8.28,0,15,6.72,15,15
		s-6.72,15-15,15h-0.88H1341c-8.28,0-15,6.72-15,15s6.72,15,15,15h83.74H1514c8.28,0,15,6.72,15,15s-6.72,15-15,15h-87.91H1403
		c-8.28,0-15,6.72-15,15s6.72,15,15,15h24.45H1440c8.28,0,15,6.72,15,15s-6.72,15-15,15h-11.19H1237c-8.28,0-15,6.72-15,15
		s6.72,15,15,15h193.16H1473c8.28,0,15,6.72,15,15s-6.72,15-15,15h-41.48H1369c-8.28,0-15,6.72-15,15s6.72,15,15,15h63.88H1533
		c8.28,0,15,6.72,15,15s-6.72,15-15,15h-98.77H1351c-8.28,0-15,6.72-15,15s6.72,15,15,15h84.59H1450c8.28,0,15,6.72,15,15
		s-6.72,15-15,15h-13.06H1403c-8.28,0-15,6.72-15,15s6.72,15,15,15h35.3h64.7c8.28,0,15,6.72,15,15s-6.72,15-15,15h-63.34H1370
		c-8.28,0-15,6.72-15,15s6.72,15,15,15h82.85H1487c8.28,0,15,6.72,15,15s-6.72,15-15,15h-16.95H1440c-8.28,0-15,6.72-15,15
		s6.72,15,15,15h25.64H1533c8.28,0,15,6.72,15,15s-6.72,15-15,15h-98.45H1261c-8.28,0-15,6.72-15,15s6.72,15,15,15h142.46H1440
		c8.28,0,15,6.72,15,15s-6.72,15-15,15h-67.63H1303c-8.28,0-15,6.72-15,15s6.72,15,15,15h38.28H1481c8.28,0,15,6.72,15,15
		s-6.72,15-15,15h-170.81H1174c-8.28,0-15,6.72-15,15h441V0h-600c0,8.28,6.72,15,15,15h125.21H1268c8.28,0,15,6.72,15,15
		s-6.72,15-15,15h-97.91H984c-8.28,0-15,6.72-15,15s6.72,15,15,15h215.97H1237c8.28,0,15,6.72,15,15s-6.72,15-15,15h-7.15H1141
		c-8.28,0-15,6.72-15,15s6.72,15,15,15h118.72H1473c8.28,0,15,6.72,15,15s-6.72,15-15,15h-183.4H1187c-8.28,0-15,6.72-15,15
		s6.72,15,15,15h132.48H1340c8.28,0,15,6.72,15,15c0,5.59-3.06,10.45-7.59,13.04C1347.41,223.04,1344.67,225,1340,225z"/>
</g>
</svg>
