<?xml version="1.0" encoding="utf-8"?>
<!-- Generator: Adobe Illustrator 16.0.0, SVG Export Plug-In . SVG Version: 6.00 Build 0)  -->
<!DOCTYPE svg PUBLIC "-//W3C//DTD SVG 1.1//EN" "http://www.w3.org/Graphics/SVG/1.1/DTD/svg11.dtd">
<svg version="1.1" id="Layer_1" xmlns="http://www.w3.org/2000/svg" xmlns:xlink="http://www.w3.org/1999/xlink" x="0px" y="0px"
	 width="100%" height="100%" preserveAspectRatio="none" viewBox="0 0 500 500" enable-background="new 0 0 500 500" xml:space="preserve">
<g>
	
		<radialGradient id="SVGID_1_" cx="198.1777" cy="362.6436" r="302.2791" gradientTransform="matrix(-1.2626 0 0 -1.7361 445.1303 723.4236)" gradientUnits="userSpaceOnUse">
		<stop  offset="0" style="stop-color:#EDEDED"/>
		<stop  offset="0.3813" style="stop-color:#EAEDE6"/>
		<stop  offset="0.9334" style="stop-color:#E1EDD3"/>
		<stop  offset="1" style="stop-color:#E0EDD0"/>
	</radialGradient>
	<rect fill="url(#SVGID_1_)" width="500" height="500"/>
	<g>
		<g>
			<defs>
				<rect id="SVGID_2_" width="500" height="500"/>
			</defs>
			<clipPath id="SVGID_3_">
				<use xlink:href="#SVGID_2_"  overflow="visible"/>
			</clipPath>
			<g clip-path="url(#SVGID_3_)">
				
					<radialGradient id="SVGID_4_" cx="70.7979" cy="441.2686" r="310.2679" gradientTransform="matrix(-1.2735 -0.2439 0.1807 -1.7189 399.1293 760.3397)" gradientUnits="userSpaceOnUse">
					<stop  offset="0" style="stop-color:#EDEDED"/>
					<stop  offset="0.4341" style="stop-color:#C8E89E"/>
					<stop  offset="0.4908" style="stop-color:#BDE28C"/>
					<stop  offset="0.6559" style="stop-color:#9FD15C"/>
					<stop  offset="0.8018" style="stop-color:#89C43A"/>
					<stop  offset="0.9215" style="stop-color:#7CBD25"/>
					<stop  offset="1" style="stop-color:#77BA1D"/>
				</radialGradient>
				<path opacity="0.2" fill="url(#SVGID_4_)" d="M77.996,385.947l0.893,146.001l499.861-5.562l-9.689-472.491
					c0,0-34.022,133.321-144.865,231.936C348.817,352.871,237.898,403.861,77.996,385.947z"/>
				<path fill="#EDEDED" d="M-89.087,325.41l-26.83,136.548l586.649,210.179l78.858-444.847c0,0-65.313,109.686-213.991,153.903
					C234.492,411.239,94.817,411.011-89.087,325.41z"/>
				
					<radialGradient id="SVGID_5_" cx="30.1099" cy="441.2666" r="438.0815" gradientTransform="matrix(-1.2735 -0.2439 0.1807 -1.7189 399.1293 760.3397)" gradientUnits="userSpaceOnUse">
					<stop  offset="0" style="stop-color:#EDEDED"/>
					<stop  offset="0.4341" style="stop-color:#C8E89E"/>
					<stop  offset="0.4908" style="stop-color:#BDE28C"/>
					<stop  offset="0.6559" style="stop-color:#9FD15C"/>
					<stop  offset="0.8018" style="stop-color:#89C43A"/>
					<stop  offset="0.9215" style="stop-color:#7CBD25"/>
					<stop  offset="1" style="stop-color:#77BA1D"/>
				</radialGradient>
				<path opacity="0.6" fill="url(#SVGID_5_)" d="M-86.583,330.51l-27.345,136.376l585.854,213.989l80.525-444.328
					c0,0-65.723,109.256-214.564,152.509C236.668,418.444,96.995,417.306-86.583,330.51z"/>
				
					<radialGradient id="SVGID_6_" cx="186.4355" cy="354.5352" r="371.5644" gradientTransform="matrix(-1.2735 -0.2439 0.1807 -1.7189 399.1293 760.3397)" gradientUnits="userSpaceOnUse">
					<stop  offset="0" style="stop-color:#EDEDED"/>
					<stop  offset="0.4341" style="stop-color:#C8E89E"/>
					<stop  offset="0.4908" style="stop-color:#BDE28C"/>
					<stop  offset="0.6559" style="stop-color:#9FD15C"/>
					<stop  offset="0.8018" style="stop-color:#89C43A"/>
					<stop  offset="0.9215" style="stop-color:#7CBD25"/>
					<stop  offset="1" style="stop-color:#77BA1D"/>
				</radialGradient>
				<path opacity="0.5" fill="url(#SVGID_6_)" d="M-86.583,330.51l-18.706,93.291c222.746,66.012,365.223,15.583,443.177-34.747
					C236.668,418.444,96.995,417.306-86.583,330.51z"/>
				<radialGradient id="SVGID_7_" cx="745.5" cy="363.5" r="0.5" gradientUnits="userSpaceOnUse">
					<stop  offset="0" style="stop-color:#EDEDED"/>
					<stop  offset="0.4341" style="stop-color:#C8E89E"/>
					<stop  offset="0.4908" style="stop-color:#BDE28C"/>
					<stop  offset="0.6559" style="stop-color:#9FD15C"/>
					<stop  offset="0.8018" style="stop-color:#89C43A"/>
					<stop  offset="0.9215" style="stop-color:#7CBD25"/>
					<stop  offset="1" style="stop-color:#77BA1D"/>
				</radialGradient>
				<path opacity="0.3" fill="url(#SVGID_7_)" enable-background="new    " d="M-71.787,339.076l-39.226,130.935L451.672,777.79
					l119.312-427.986c0,0-74.933,97.764-226.532,116.478C241.352,478.982,102.785,455.118-71.787,339.076z"/>
			</g>
		</g>
	</g>
</g>
</svg>
