<svg xmlns="http://www.w3.org/2000/svg" xmlns:xlink="http://www.w3.org/1999/xlink" width="100%" height="100%" preserveAspectRatio="none" viewBox="0 0 500 500"><defs><radialGradient id="a" cx="-363.17" cy="1258.13" r="302.28" gradientTransform="matrix(-1.26, 0, 0, 1.74, -263.63, -2090.4)" gradientUnits="userSpaceOnUse"><stop offset="0" stop-color="#0e0f0c"/><stop offset="1" stop-color="#0e0f0c"/></radialGradient><clipPath id="b"><rect width="500" height="500" fill="none"/></clipPath><radialGradient id="c" cx="-518.04" cy="1139.4" r="310.27" gradientTransform="matrix(-1.27, -0.24, -0.18, 1.72, -65.12, -2100.28)" gradientUnits="userSpaceOnUse"><stop offset="0" stop-color="#0e0f0c"/><stop offset="0.43" stop-color="#c8e89e"/><stop offset="0.49" stop-color="#bde28c"/><stop offset="0.66" stop-color="#9fd15c"/><stop offset="0.8" stop-color="#89c43a"/><stop offset="0.92" stop-color="#7cbd25"/><stop offset="1" stop-color="#77ba1d"/></radialGradient><radialGradient id="d" cx="-558.72" cy="1139.4" r="438.08" gradientTransform="matrix(-1.27, -0.24, -0.18, 1.72, -65.12, -2100.28)" gradientUnits="userSpaceOnUse"><stop offset="0" stop-color="#0e0f0c"/><stop offset="0.18" stop-color="#6e8057"/><stop offset="0.25" stop-color="#728559"/><stop offset="0.45" stop-color="#90ab6b"/><stop offset="0.66" stop-color="#9fd15c"/><stop offset="0.8" stop-color="#89c43a"/><stop offset="0.92" stop-color="#7cbd25"/><stop offset="1" stop-color="#77ba1d"/></radialGradient><radialGradient id="e" cx="-402.4" cy="1226.13" r="371.57" gradientTransform="matrix(-1.27, -0.24, -0.18, 1.72, -65.12, -2100.28)" gradientUnits="userSpaceOnUse"><stop offset="0" stop-color="#0e0f0c"/><stop offset="0.43" stop-color="#7e9163"/><stop offset="0.49" stop-color="#b3d685"/><stop offset="0.66" stop-color="#9fd15c"/><stop offset="0.8" stop-color="#89c43a"/><stop offset="0.92" stop-color="#7cbd25"/><stop offset="1" stop-color="#77ba1d"/></radialGradient><radialGradient id="f" cx="801.5" cy="572.5" r="0.5" gradientTransform="matrix(1, 0, 0, -1, -56, 936)" xlink:href="#c"/></defs><rect width="500" height="500" fill="url(#a)"/><g clip-path="url(#b)"><path d="M78,385.93l.88,146,499.86-5.56-9.68-472.5S535,187.22,424.21,285.83C348.8,352.87,237.92,403.84,78,385.93Z" opacity="0.2" fill="url(#c)" style="isolation:isolate"/><path d="M-89.07,325.42l-26.86,136.52L470.74,672.13l78.84-444.86S484.26,337,335.6,381.16C234.49,411.25,94.82,411-89.07,325.42Z" fill="#0e0f0c"/><path d="M-86.57,330.51-113.93,466.9l585.83,214,80.51-444.31s-65.74,109.26-214.59,152.5C236.67,418.43,97,417.31-86.57,330.51Z" opacity="0.6" fill="url(#d)" style="isolation:isolate"/><path d="M-86.57,330.51l-18.71,93.29c222.73,66,365.23,15.6,443.2-34.77C236.67,418.43,97,417.31-86.57,330.51Z" opacity="0.5" fill="url(#e)" style="isolation:isolate"/><path d="M-71.81,339.07-111,470,451.67,777.78l119.3-428s-75,97.78-226.52,116.48C241.34,479,102.78,455.14-71.81,339.07Z" opacity="0.3" fill="url(#f)" style="isolation:isolate"/></g></svg>