<?xml version="1.0" encoding="utf-8"?>
<!-- Generator: Adobe Illustrator 16.0.0, SVG Export Plug-In . SVG Version: 6.00 Build 0)  -->
<!DOCTYPE svg PUBLIC "-//W3C//DTD SVG 1.1//EN" "http://www.w3.org/Graphics/SVG/1.1/DTD/svg11.dtd">
<svg version="1.1" id="Layer_1" xmlns="http://www.w3.org/2000/svg" xmlns:xlink="http://www.w3.org/1999/xlink" x="0px" y="0px"
	 width="100px" height="100px" viewBox="0 0 100 100" enable-background="new 0 0 100 100" xml:space="preserve">
<path fill-rule="evenodd" clip-rule="evenodd" fill="#7F7F7F" d="M86.98,29.06c0.83,2.52,1.27,5.2,1.27,7.99
	c0,14.21-11.51,25.73-25.73,25.73c-14.21,0-25.73-11.52-25.73-25.73c0-14.21,11.52-25.73,25.73-25.73c2.5,0,4.91,0.36,7.19,1.02
	C63.82,9.26,57.11,7.5,50,7.5C26.53,7.5,7.5,26.53,7.5,50S26.53,92.5,50,92.5S92.5,73.47,92.5,50
	C92.5,42.39,90.48,35.25,86.98,29.06z"/>
</svg>
