<?xml version="1.0" encoding="utf-8"?>
<!-- Generator: Adobe Illustrator 16.0.0, SVG Export Plug-In . SVG Version: 6.00 Build 0)  -->
<!DOCTYPE svg PUBLIC "-//W3C//DTD SVG 1.1//EN" "http://www.w3.org/Graphics/SVG/1.1/DTD/svg11.dtd">
<svg version="1.1" id="Layer_1" xmlns="http://www.w3.org/2000/svg" xmlns:xlink="http://www.w3.org/1999/xlink" x="0px" y="0px"
	 width="100px" height="100px" viewBox="0 0 100 100" enable-background="new 0 0 100 100" xml:space="preserve">
<g>
	<path fill-rule="evenodd" clip-rule="evenodd" fill="#7F7F7F" d="M50,15c2.07,0,4.08,0.19,6.05,0.53L49.83-0.23L43.59,15.6
		C45.67,15.21,47.81,15,50,15z"/>
	<path fill-rule="evenodd" clip-rule="evenodd" fill="#7F7F7F" d="M99.83,49.77l-15.41-6.08C84.79,45.74,85,47.84,85,50
		c0,1.98-0.17,3.92-0.49,5.81L99.83,49.77z"/>
	<path fill-rule="evenodd" clip-rule="evenodd" fill="#7F7F7F" d="M30.12,21.2l-15.64-6.79l6.79,15.62
		C23.66,26.59,26.66,23.59,30.12,21.2z"/>
	<path fill-rule="evenodd" clip-rule="evenodd" fill="#7F7F7F" d="M78.53,29.74l6.66-15.33l-15.43,6.7
		C73.17,23.45,76.14,26.38,78.53,29.74z"/>
	<path fill-rule="evenodd" clip-rule="evenodd" fill="#7F7F7F" d="M21.14,69.79l-6.66,15.33l15.23-6.61
		C26.37,76.13,23.46,73.18,21.14,69.79z"/>
	<path fill-rule="evenodd" clip-rule="evenodd" fill="#7F7F7F" d="M70.17,78.6l15.02,6.53l-6.53-15.04
		C76.34,73.39,73.46,76.27,70.17,78.6z"/>
	<path fill-rule="evenodd" clip-rule="evenodd" fill="#7F7F7F" d="M50,85c-2.12,0-4.19-0.2-6.21-0.56l6.04,15.33l6.02-15.26
		C53.95,84.82,52,85,50,85z"/>
	<path fill-rule="evenodd" clip-rule="evenodd" fill="#7F7F7F" d="M15,50c0-2.21,0.21-4.36,0.6-6.45l-15.77,6.22l15.68,6.18
		C15.18,54.02,15,52.03,15,50z"/>
</g>
<path fill-rule="evenodd" clip-rule="evenodd" fill="#7F7F7F" d="M80,50c0,16.57-13.43,30-30,30S20,66.57,20,50
	c0-16.56,13.43-30,30-30S80,33.44,80,50z"/>
</svg>
